<?xml version="1.0" encoding="utf-8" standalone="no"?>
<!DOCTYPE svg PUBLIC "-//W3C//DTD SVG 1.1//EN"
  "http://www.w3.org/Graphics/SVG/1.1/DTD/svg11.dtd">
<svg xmlns:xlink="http://www.w3.org/1999/xlink" width="720pt" height="360pt" viewBox="0 0 720 360" xmlns="http://www.w3.org/2000/svg" version="1.1">
 <metadata>
  <rdf:RDF xmlns:dc="http://purl.org/dc/elements/1.1/" xmlns:cc="http://creativecommons.org/ns#" xmlns:rdf="http://www.w3.org/1999/02/22-rdf-syntax-ns#">
   <cc:Work>
    <dc:type rdf:resource="http://purl.org/dc/dcmitype/StillImage"/>
    <dc:date>2022-11-29T21:20:43.007404</dc:date>
    <dc:format>image/svg+xml</dc:format>
    <dc:creator>
     <cc:Agent>
      <dc:title>Matplotlib v3.5.3, https://matplotlib.org/</dc:title>
     </cc:Agent>
    </dc:creator>
   </cc:Work>
  </rdf:RDF>
 </metadata>
 <defs>
  <style type="text/css">*{stroke-linejoin: round; stroke-linecap: butt}</style>
 </defs>
 <g id="figure_1">
  <g id="patch_1">
   <path d="M 0 360 
L 720 360 
L 720 0 
L 0 0 
z
" style="fill: #ffffff"/>
  </g>
  <g id="axes_1">
   <g id="patch_2">
    <path d="M 90 320.4 
L 648 320.4 
L 648 43.2 
L 90 43.2 
z
" style="fill: #ffffff"/>
   </g>
   <g id="matplotlib.axis_1">
    <g id="xtick_1">
     <g id="line2d_1">
      <defs>
       <path id="m0ff9c3b3d9" d="M 0 0 
L 0 3.5 
" style="stroke: #000000; stroke-width: 0.8"/>
      </defs>
      <g>
       <use xlink:href="#m0ff9c3b3d9" x="115.363636" y="320.4" style="stroke: #000000; stroke-width: 0.8"/>
      </g>
     </g>
     <g id="text_1">
      <!-- 0 -->
      <g transform="translate(112.182386 334.998438)scale(0.1 -0.1)">
       <defs>
        <path id="DejaVuSans-30" d="M 2034 4250 
Q 1547 4250 1301 3770 
Q 1056 3291 1056 2328 
Q 1056 1369 1301 889 
Q 1547 409 2034 409 
Q 2525 409 2770 889 
Q 3016 1369 3016 2328 
Q 3016 3291 2770 3770 
Q 2525 4250 2034 4250 
z
M 2034 4750 
Q 2819 4750 3233 4129 
Q 3647 3509 3647 2328 
Q 3647 1150 3233 529 
Q 2819 -91 2034 -91 
Q 1250 -91 836 529 
Q 422 1150 422 2328 
Q 422 3509 836 4129 
Q 1250 4750 2034 4750 
z
" transform="scale(0.015625)"/>
       </defs>
       <use xlink:href="#DejaVuSans-30"/>
      </g>
     </g>
    </g>
    <g id="xtick_2">
     <g id="line2d_2">
      <g>
       <use xlink:href="#m0ff9c3b3d9" x="216.829" y="320.4" style="stroke: #000000; stroke-width: 0.8"/>
      </g>
     </g>
     <g id="text_2">
      <!-- 1 -->
      <g transform="translate(213.64775 334.998438)scale(0.1 -0.1)">
       <defs>
        <path id="DejaVuSans-31" d="M 794 531 
L 1825 531 
L 1825 4091 
L 703 3866 
L 703 4441 
L 1819 4666 
L 2450 4666 
L 2450 531 
L 3481 531 
L 3481 0 
L 794 0 
L 794 531 
z
" transform="scale(0.015625)"/>
       </defs>
       <use xlink:href="#DejaVuSans-31"/>
      </g>
     </g>
    </g>
    <g id="xtick_3">
     <g id="line2d_3">
      <g>
       <use xlink:href="#m0ff9c3b3d9" x="318.294364" y="320.4" style="stroke: #000000; stroke-width: 0.8"/>
      </g>
     </g>
     <g id="text_3">
      <!-- 2 -->
      <g transform="translate(315.113114 334.998438)scale(0.1 -0.1)">
       <defs>
        <path id="DejaVuSans-32" d="M 1228 531 
L 3431 531 
L 3431 0 
L 469 0 
L 469 531 
Q 828 903 1448 1529 
Q 2069 2156 2228 2338 
Q 2531 2678 2651 2914 
Q 2772 3150 2772 3378 
Q 2772 3750 2511 3984 
Q 2250 4219 1831 4219 
Q 1534 4219 1204 4116 
Q 875 4013 500 3803 
L 500 4441 
Q 881 4594 1212 4672 
Q 1544 4750 1819 4750 
Q 2544 4750 2975 4387 
Q 3406 4025 3406 3419 
Q 3406 3131 3298 2873 
Q 3191 2616 2906 2266 
Q 2828 2175 2409 1742 
Q 1991 1309 1228 531 
z
" transform="scale(0.015625)"/>
       </defs>
       <use xlink:href="#DejaVuSans-32"/>
      </g>
     </g>
    </g>
    <g id="xtick_4">
     <g id="line2d_4">
      <g>
       <use xlink:href="#m0ff9c3b3d9" x="419.759728" y="320.4" style="stroke: #000000; stroke-width: 0.8"/>
      </g>
     </g>
     <g id="text_4">
      <!-- 3 -->
      <g transform="translate(416.578478 334.998438)scale(0.1 -0.1)">
       <defs>
        <path id="DejaVuSans-33" d="M 2597 2516 
Q 3050 2419 3304 2112 
Q 3559 1806 3559 1356 
Q 3559 666 3084 287 
Q 2609 -91 1734 -91 
Q 1441 -91 1130 -33 
Q 819 25 488 141 
L 488 750 
Q 750 597 1062 519 
Q 1375 441 1716 441 
Q 2309 441 2620 675 
Q 2931 909 2931 1356 
Q 2931 1769 2642 2001 
Q 2353 2234 1838 2234 
L 1294 2234 
L 1294 2753 
L 1863 2753 
Q 2328 2753 2575 2939 
Q 2822 3125 2822 3475 
Q 2822 3834 2567 4026 
Q 2313 4219 1838 4219 
Q 1578 4219 1281 4162 
Q 984 4106 628 3988 
L 628 4550 
Q 988 4650 1302 4700 
Q 1616 4750 1894 4750 
Q 2613 4750 3031 4423 
Q 3450 4097 3450 3541 
Q 3450 3153 3228 2886 
Q 3006 2619 2597 2516 
z
" transform="scale(0.015625)"/>
       </defs>
       <use xlink:href="#DejaVuSans-33"/>
      </g>
     </g>
    </g>
    <g id="xtick_5">
     <g id="line2d_5">
      <g>
       <use xlink:href="#m0ff9c3b3d9" x="521.225091" y="320.4" style="stroke: #000000; stroke-width: 0.8"/>
      </g>
     </g>
     <g id="text_5">
      <!-- 4 -->
      <g transform="translate(518.043841 334.998438)scale(0.1 -0.1)">
       <defs>
        <path id="DejaVuSans-34" d="M 2419 4116 
L 825 1625 
L 2419 1625 
L 2419 4116 
z
M 2253 4666 
L 3047 4666 
L 3047 1625 
L 3713 1625 
L 3713 1100 
L 3047 1100 
L 3047 0 
L 2419 0 
L 2419 1100 
L 313 1100 
L 313 1709 
L 2253 4666 
z
" transform="scale(0.015625)"/>
       </defs>
       <use xlink:href="#DejaVuSans-34"/>
      </g>
     </g>
    </g>
    <g id="xtick_6">
     <g id="line2d_6">
      <g>
       <use xlink:href="#m0ff9c3b3d9" x="622.690455" y="320.4" style="stroke: #000000; stroke-width: 0.8"/>
      </g>
     </g>
     <g id="text_6">
      <!-- 5 -->
      <g transform="translate(619.509205 334.998438)scale(0.1 -0.1)">
       <defs>
        <path id="DejaVuSans-35" d="M 691 4666 
L 3169 4666 
L 3169 4134 
L 1269 4134 
L 1269 2991 
Q 1406 3038 1543 3061 
Q 1681 3084 1819 3084 
Q 2600 3084 3056 2656 
Q 3513 2228 3513 1497 
Q 3513 744 3044 326 
Q 2575 -91 1722 -91 
Q 1428 -91 1123 -41 
Q 819 9 494 109 
L 494 744 
Q 775 591 1075 516 
Q 1375 441 1709 441 
Q 2250 441 2565 725 
Q 2881 1009 2881 1497 
Q 2881 1984 2565 2268 
Q 2250 2553 1709 2553 
Q 1456 2553 1204 2497 
Q 953 2441 691 2322 
L 691 4666 
z
" transform="scale(0.015625)"/>
       </defs>
       <use xlink:href="#DejaVuSans-35"/>
      </g>
     </g>
    </g>
    <g id="text_7">
     <!-- Epochs -->
     <g transform="translate(351.084375 348.676562)scale(0.1 -0.1)">
      <defs>
       <path id="DejaVuSans-45" d="M 628 4666 
L 3578 4666 
L 3578 4134 
L 1259 4134 
L 1259 2753 
L 3481 2753 
L 3481 2222 
L 1259 2222 
L 1259 531 
L 3634 531 
L 3634 0 
L 628 0 
L 628 4666 
z
" transform="scale(0.015625)"/>
       <path id="DejaVuSans-70" d="M 1159 525 
L 1159 -1331 
L 581 -1331 
L 581 3500 
L 1159 3500 
L 1159 2969 
Q 1341 3281 1617 3432 
Q 1894 3584 2278 3584 
Q 2916 3584 3314 3078 
Q 3713 2572 3713 1747 
Q 3713 922 3314 415 
Q 2916 -91 2278 -91 
Q 1894 -91 1617 61 
Q 1341 213 1159 525 
z
M 3116 1747 
Q 3116 2381 2855 2742 
Q 2594 3103 2138 3103 
Q 1681 3103 1420 2742 
Q 1159 2381 1159 1747 
Q 1159 1113 1420 752 
Q 1681 391 2138 391 
Q 2594 391 2855 752 
Q 3116 1113 3116 1747 
z
" transform="scale(0.015625)"/>
       <path id="DejaVuSans-6f" d="M 1959 3097 
Q 1497 3097 1228 2736 
Q 959 2375 959 1747 
Q 959 1119 1226 758 
Q 1494 397 1959 397 
Q 2419 397 2687 759 
Q 2956 1122 2956 1747 
Q 2956 2369 2687 2733 
Q 2419 3097 1959 3097 
z
M 1959 3584 
Q 2709 3584 3137 3096 
Q 3566 2609 3566 1747 
Q 3566 888 3137 398 
Q 2709 -91 1959 -91 
Q 1206 -91 779 398 
Q 353 888 353 1747 
Q 353 2609 779 3096 
Q 1206 3584 1959 3584 
z
" transform="scale(0.015625)"/>
       <path id="DejaVuSans-63" d="M 3122 3366 
L 3122 2828 
Q 2878 2963 2633 3030 
Q 2388 3097 2138 3097 
Q 1578 3097 1268 2742 
Q 959 2388 959 1747 
Q 959 1106 1268 751 
Q 1578 397 2138 397 
Q 2388 397 2633 464 
Q 2878 531 3122 666 
L 3122 134 
Q 2881 22 2623 -34 
Q 2366 -91 2075 -91 
Q 1284 -91 818 406 
Q 353 903 353 1747 
Q 353 2603 823 3093 
Q 1294 3584 2113 3584 
Q 2378 3584 2631 3529 
Q 2884 3475 3122 3366 
z
" transform="scale(0.015625)"/>
       <path id="DejaVuSans-68" d="M 3513 2113 
L 3513 0 
L 2938 0 
L 2938 2094 
Q 2938 2591 2744 2837 
Q 2550 3084 2163 3084 
Q 1697 3084 1428 2787 
Q 1159 2491 1159 1978 
L 1159 0 
L 581 0 
L 581 4863 
L 1159 4863 
L 1159 2956 
Q 1366 3272 1645 3428 
Q 1925 3584 2291 3584 
Q 2894 3584 3203 3211 
Q 3513 2838 3513 2113 
z
" transform="scale(0.015625)"/>
       <path id="DejaVuSans-73" d="M 2834 3397 
L 2834 2853 
Q 2591 2978 2328 3040 
Q 2066 3103 1784 3103 
Q 1356 3103 1142 2972 
Q 928 2841 928 2578 
Q 928 2378 1081 2264 
Q 1234 2150 1697 2047 
L 1894 2003 
Q 2506 1872 2764 1633 
Q 3022 1394 3022 966 
Q 3022 478 2636 193 
Q 2250 -91 1575 -91 
Q 1294 -91 989 -36 
Q 684 19 347 128 
L 347 722 
Q 666 556 975 473 
Q 1284 391 1588 391 
Q 1994 391 2212 530 
Q 2431 669 2431 922 
Q 2431 1156 2273 1281 
Q 2116 1406 1581 1522 
L 1381 1569 
Q 847 1681 609 1914 
Q 372 2147 372 2553 
Q 372 3047 722 3315 
Q 1072 3584 1716 3584 
Q 2034 3584 2315 3537 
Q 2597 3491 2834 3397 
z
" transform="scale(0.015625)"/>
      </defs>
      <use xlink:href="#DejaVuSans-45"/>
      <use xlink:href="#DejaVuSans-70" x="63.183594"/>
      <use xlink:href="#DejaVuSans-6f" x="126.660156"/>
      <use xlink:href="#DejaVuSans-63" x="187.841797"/>
      <use xlink:href="#DejaVuSans-68" x="242.822266"/>
      <use xlink:href="#DejaVuSans-73" x="306.201172"/>
     </g>
    </g>
   </g>
   <g id="matplotlib.axis_2">
    <g id="ytick_1">
     <g id="line2d_7">
      <defs>
       <path id="m96d3594413" d="M 0 0 
L -3.5 0 
" style="stroke: #000000; stroke-width: 0.8"/>
      </defs>
      <g>
       <use xlink:href="#m96d3594413" x="90" y="303.263554" style="stroke: #000000; stroke-width: 0.8"/>
      </g>
     </g>
     <g id="text_8">
      <!-- 0.65 -->
      <g transform="translate(60.734375 307.062773)scale(0.1 -0.1)">
       <defs>
        <path id="DejaVuSans-2e" d="M 684 794 
L 1344 794 
L 1344 0 
L 684 0 
L 684 794 
z
" transform="scale(0.015625)"/>
        <path id="DejaVuSans-36" d="M 2113 2584 
Q 1688 2584 1439 2293 
Q 1191 2003 1191 1497 
Q 1191 994 1439 701 
Q 1688 409 2113 409 
Q 2538 409 2786 701 
Q 3034 994 3034 1497 
Q 3034 2003 2786 2293 
Q 2538 2584 2113 2584 
z
M 3366 4563 
L 3366 3988 
Q 3128 4100 2886 4159 
Q 2644 4219 2406 4219 
Q 1781 4219 1451 3797 
Q 1122 3375 1075 2522 
Q 1259 2794 1537 2939 
Q 1816 3084 2150 3084 
Q 2853 3084 3261 2657 
Q 3669 2231 3669 1497 
Q 3669 778 3244 343 
Q 2819 -91 2113 -91 
Q 1303 -91 875 529 
Q 447 1150 447 2328 
Q 447 3434 972 4092 
Q 1497 4750 2381 4750 
Q 2619 4750 2861 4703 
Q 3103 4656 3366 4563 
z
" transform="scale(0.015625)"/>
       </defs>
       <use xlink:href="#DejaVuSans-30"/>
       <use xlink:href="#DejaVuSans-2e" x="63.623047"/>
       <use xlink:href="#DejaVuSans-36" x="95.410156"/>
       <use xlink:href="#DejaVuSans-35" x="159.033203"/>
      </g>
     </g>
    </g>
    <g id="ytick_2">
     <g id="line2d_8">
      <g>
       <use xlink:href="#m96d3594413" x="90" y="266.971921" style="stroke: #000000; stroke-width: 0.8"/>
      </g>
     </g>
     <g id="text_9">
      <!-- 0.70 -->
      <g transform="translate(60.734375 270.77114)scale(0.1 -0.1)">
       <defs>
        <path id="DejaVuSans-37" d="M 525 4666 
L 3525 4666 
L 3525 4397 
L 1831 0 
L 1172 0 
L 2766 4134 
L 525 4134 
L 525 4666 
z
" transform="scale(0.015625)"/>
       </defs>
       <use xlink:href="#DejaVuSans-30"/>
       <use xlink:href="#DejaVuSans-2e" x="63.623047"/>
       <use xlink:href="#DejaVuSans-37" x="95.410156"/>
       <use xlink:href="#DejaVuSans-30" x="159.033203"/>
      </g>
     </g>
    </g>
    <g id="ytick_3">
     <g id="line2d_9">
      <g>
       <use xlink:href="#m96d3594413" x="90" y="230.680288" style="stroke: #000000; stroke-width: 0.8"/>
      </g>
     </g>
     <g id="text_10">
      <!-- 0.75 -->
      <g transform="translate(60.734375 234.479506)scale(0.1 -0.1)">
       <use xlink:href="#DejaVuSans-30"/>
       <use xlink:href="#DejaVuSans-2e" x="63.623047"/>
       <use xlink:href="#DejaVuSans-37" x="95.410156"/>
       <use xlink:href="#DejaVuSans-35" x="159.033203"/>
      </g>
     </g>
    </g>
    <g id="ytick_4">
     <g id="line2d_10">
      <g>
       <use xlink:href="#m96d3594413" x="90" y="194.388654" style="stroke: #000000; stroke-width: 0.8"/>
      </g>
     </g>
     <g id="text_11">
      <!-- 0.80 -->
      <g transform="translate(60.734375 198.187873)scale(0.1 -0.1)">
       <defs>
        <path id="DejaVuSans-38" d="M 2034 2216 
Q 1584 2216 1326 1975 
Q 1069 1734 1069 1313 
Q 1069 891 1326 650 
Q 1584 409 2034 409 
Q 2484 409 2743 651 
Q 3003 894 3003 1313 
Q 3003 1734 2745 1975 
Q 2488 2216 2034 2216 
z
M 1403 2484 
Q 997 2584 770 2862 
Q 544 3141 544 3541 
Q 544 4100 942 4425 
Q 1341 4750 2034 4750 
Q 2731 4750 3128 4425 
Q 3525 4100 3525 3541 
Q 3525 3141 3298 2862 
Q 3072 2584 2669 2484 
Q 3125 2378 3379 2068 
Q 3634 1759 3634 1313 
Q 3634 634 3220 271 
Q 2806 -91 2034 -91 
Q 1263 -91 848 271 
Q 434 634 434 1313 
Q 434 1759 690 2068 
Q 947 2378 1403 2484 
z
M 1172 3481 
Q 1172 3119 1398 2916 
Q 1625 2713 2034 2713 
Q 2441 2713 2670 2916 
Q 2900 3119 2900 3481 
Q 2900 3844 2670 4047 
Q 2441 4250 2034 4250 
Q 1625 4250 1398 4047 
Q 1172 3844 1172 3481 
z
" transform="scale(0.015625)"/>
       </defs>
       <use xlink:href="#DejaVuSans-30"/>
       <use xlink:href="#DejaVuSans-2e" x="63.623047"/>
       <use xlink:href="#DejaVuSans-38" x="95.410156"/>
       <use xlink:href="#DejaVuSans-30" x="159.033203"/>
      </g>
     </g>
    </g>
    <g id="ytick_5">
     <g id="line2d_11">
      <g>
       <use xlink:href="#m96d3594413" x="90" y="158.097021" style="stroke: #000000; stroke-width: 0.8"/>
      </g>
     </g>
     <g id="text_12">
      <!-- 0.85 -->
      <g transform="translate(60.734375 161.89624)scale(0.1 -0.1)">
       <use xlink:href="#DejaVuSans-30"/>
       <use xlink:href="#DejaVuSans-2e" x="63.623047"/>
       <use xlink:href="#DejaVuSans-38" x="95.410156"/>
       <use xlink:href="#DejaVuSans-35" x="159.033203"/>
      </g>
     </g>
    </g>
    <g id="ytick_6">
     <g id="line2d_12">
      <g>
       <use xlink:href="#m96d3594413" x="90" y="121.805387" style="stroke: #000000; stroke-width: 0.8"/>
      </g>
     </g>
     <g id="text_13">
      <!-- 0.90 -->
      <g transform="translate(60.734375 125.604606)scale(0.1 -0.1)">
       <defs>
        <path id="DejaVuSans-39" d="M 703 97 
L 703 672 
Q 941 559 1184 500 
Q 1428 441 1663 441 
Q 2288 441 2617 861 
Q 2947 1281 2994 2138 
Q 2813 1869 2534 1725 
Q 2256 1581 1919 1581 
Q 1219 1581 811 2004 
Q 403 2428 403 3163 
Q 403 3881 828 4315 
Q 1253 4750 1959 4750 
Q 2769 4750 3195 4129 
Q 3622 3509 3622 2328 
Q 3622 1225 3098 567 
Q 2575 -91 1691 -91 
Q 1453 -91 1209 -44 
Q 966 3 703 97 
z
M 1959 2075 
Q 2384 2075 2632 2365 
Q 2881 2656 2881 3163 
Q 2881 3666 2632 3958 
Q 2384 4250 1959 4250 
Q 1534 4250 1286 3958 
Q 1038 3666 1038 3163 
Q 1038 2656 1286 2365 
Q 1534 2075 1959 2075 
z
" transform="scale(0.015625)"/>
       </defs>
       <use xlink:href="#DejaVuSans-30"/>
       <use xlink:href="#DejaVuSans-2e" x="63.623047"/>
       <use xlink:href="#DejaVuSans-39" x="95.410156"/>
       <use xlink:href="#DejaVuSans-30" x="159.033203"/>
      </g>
     </g>
    </g>
    <g id="ytick_7">
     <g id="line2d_13">
      <g>
       <use xlink:href="#m96d3594413" x="90" y="85.513754" style="stroke: #000000; stroke-width: 0.8"/>
      </g>
     </g>
     <g id="text_14">
      <!-- 0.95 -->
      <g transform="translate(60.734375 89.312973)scale(0.1 -0.1)">
       <use xlink:href="#DejaVuSans-30"/>
       <use xlink:href="#DejaVuSans-2e" x="63.623047"/>
       <use xlink:href="#DejaVuSans-39" x="95.410156"/>
       <use xlink:href="#DejaVuSans-35" x="159.033203"/>
      </g>
     </g>
    </g>
    <g id="ytick_8">
     <g id="line2d_14">
      <g>
       <use xlink:href="#m96d3594413" x="90" y="49.222121" style="stroke: #000000; stroke-width: 0.8"/>
      </g>
     </g>
     <g id="text_15">
      <!-- 1.00 -->
      <g transform="translate(60.734375 53.021339)scale(0.1 -0.1)">
       <use xlink:href="#DejaVuSans-31"/>
       <use xlink:href="#DejaVuSans-2e" x="63.623047"/>
       <use xlink:href="#DejaVuSans-30" x="95.410156"/>
       <use xlink:href="#DejaVuSans-30" x="159.033203"/>
      </g>
     </g>
    </g>
    <g id="text_16">
     <!-- Accuracy -->
     <g transform="translate(54.654687 204.628125)rotate(-90)scale(0.1 -0.1)">
      <defs>
       <path id="DejaVuSans-41" d="M 2188 4044 
L 1331 1722 
L 3047 1722 
L 2188 4044 
z
M 1831 4666 
L 2547 4666 
L 4325 0 
L 3669 0 
L 3244 1197 
L 1141 1197 
L 716 0 
L 50 0 
L 1831 4666 
z
" transform="scale(0.015625)"/>
       <path id="DejaVuSans-75" d="M 544 1381 
L 544 3500 
L 1119 3500 
L 1119 1403 
Q 1119 906 1312 657 
Q 1506 409 1894 409 
Q 2359 409 2629 706 
Q 2900 1003 2900 1516 
L 2900 3500 
L 3475 3500 
L 3475 0 
L 2900 0 
L 2900 538 
Q 2691 219 2414 64 
Q 2138 -91 1772 -91 
Q 1169 -91 856 284 
Q 544 659 544 1381 
z
M 1991 3584 
L 1991 3584 
z
" transform="scale(0.015625)"/>
       <path id="DejaVuSans-72" d="M 2631 2963 
Q 2534 3019 2420 3045 
Q 2306 3072 2169 3072 
Q 1681 3072 1420 2755 
Q 1159 2438 1159 1844 
L 1159 0 
L 581 0 
L 581 3500 
L 1159 3500 
L 1159 2956 
Q 1341 3275 1631 3429 
Q 1922 3584 2338 3584 
Q 2397 3584 2469 3576 
Q 2541 3569 2628 3553 
L 2631 2963 
z
" transform="scale(0.015625)"/>
       <path id="DejaVuSans-61" d="M 2194 1759 
Q 1497 1759 1228 1600 
Q 959 1441 959 1056 
Q 959 750 1161 570 
Q 1363 391 1709 391 
Q 2188 391 2477 730 
Q 2766 1069 2766 1631 
L 2766 1759 
L 2194 1759 
z
M 3341 1997 
L 3341 0 
L 2766 0 
L 2766 531 
Q 2569 213 2275 61 
Q 1981 -91 1556 -91 
Q 1019 -91 701 211 
Q 384 513 384 1019 
Q 384 1609 779 1909 
Q 1175 2209 1959 2209 
L 2766 2209 
L 2766 2266 
Q 2766 2663 2505 2880 
Q 2244 3097 1772 3097 
Q 1472 3097 1187 3025 
Q 903 2953 641 2809 
L 641 3341 
Q 956 3463 1253 3523 
Q 1550 3584 1831 3584 
Q 2591 3584 2966 3190 
Q 3341 2797 3341 1997 
z
" transform="scale(0.015625)"/>
       <path id="DejaVuSans-79" d="M 2059 -325 
Q 1816 -950 1584 -1140 
Q 1353 -1331 966 -1331 
L 506 -1331 
L 506 -850 
L 844 -850 
Q 1081 -850 1212 -737 
Q 1344 -625 1503 -206 
L 1606 56 
L 191 3500 
L 800 3500 
L 1894 763 
L 2988 3500 
L 3597 3500 
L 2059 -325 
z
" transform="scale(0.015625)"/>
      </defs>
      <use xlink:href="#DejaVuSans-41"/>
      <use xlink:href="#DejaVuSans-63" x="66.658203"/>
      <use xlink:href="#DejaVuSans-63" x="121.638672"/>
      <use xlink:href="#DejaVuSans-75" x="176.619141"/>
      <use xlink:href="#DejaVuSans-72" x="239.998047"/>
      <use xlink:href="#DejaVuSans-61" x="281.111328"/>
      <use xlink:href="#DejaVuSans-63" x="342.390625"/>
      <use xlink:href="#DejaVuSans-79" x="397.371094"/>
     </g>
    </g>
   </g>
   <g id="line2d_15">
    <path d="M 115.363636 55.8 
L 120.721008 55.8 
L 120.883352 77.574959 
L 126.132494 77.574959 
L 126.294838 85.967419 
L 131.54398 85.967419 
L 131.706324 81.657775 
L 136.955465 81.657775 
L 137.11781 83.926011 
L 142.366952 83.926011 
L 142.529297 102.525466 
L 147.778439 102.525466 
L 147.940784 115.227525 
L 153.189923 115.227525 
L 153.352268 144.941288 
L 158.60141 144.941288 
L 158.763754 156.055596 
L 164.012897 156.055596 
L 164.175241 183.274338 
L 169.424384 183.274338 
L 169.586725 198.017806 
L 174.835871 198.017806 
L 174.998212 216.844089 
L 180.247352 216.844089 
L 180.409699 216.163648 
L 185.658839 216.163648 
L 185.821186 244.062831 
L 191.070326 244.062831 
L 191.232673 237.938607 
L 196.481813 237.938607 
L 196.644154 260.167223 
L 201.8933 260.167223 
L 202.055641 256.08445 
L 207.304787 256.08445 
L 207.467128 267.425586 
L 212.716274 267.425586 
L 212.878615 268.106026 
L 218.127755 268.106026 
L 218.290102 270.60109 
L 223.539248 270.60109 
L 223.701583 284.210461 
L 228.950728 284.210461 
L 229.113076 275.591174 
L 234.362209 275.591174 
L 234.524557 283.983633 
L 239.773702 283.983633 
L 239.93605 278.993506 
L 245.185183 278.993506 
L 245.347531 287.839621 
L 250.596676 287.839621 
L 250.759024 290.107856 
L 256.008157 290.107856 
L 256.170505 280.808086 
L 261.41965 280.808086 
L 261.581985 291.468781 
L 266.831131 291.468781 
L 266.993478 282.395881 
L 272.242612 282.395881 
L 272.404959 298.500272 
L 277.654105 298.500272 
L 277.816452 287.159137 
L 283.065586 287.159137 
L 283.227933 295.778424 
L 288.477079 295.778424 
L 288.639426 297.819789 
L 293.88856 297.819789 
L 294.050907 292.376049 
L 299.300053 292.376049 
L 299.462388 290.561469 
L 304.711534 290.561469 
L 304.873881 295.551596 
L 310.123015 295.551596 
L 310.285362 291.241953 
L 315.534508 291.241953 
L 315.696855 303.717184 
L 320.945989 303.717184 
L 321.108336 302.583088 
L 326.357469 302.583088 
L 326.519817 301.448992 
L 331.768975 301.448992 
L 331.931298 307.8 
L 337.180455 307.8 
L 337.342803 298.7271 
L 342.591936 298.7271 
L 342.754284 284.664073 
L 348.003417 284.664073 
L 348.165765 299.407584 
L 353.414898 299.407584 
L 353.577246 290.788297 
L 358.826403 290.788297 
L 358.988751 289.200545 
L 364.237884 289.200545 
L 364.400232 283.756805 
L 369.649365 283.756805 
L 369.811712 297.366176 
L 375.060846 297.366176 
L 375.223193 279.220334 
L 380.472327 279.220334 
L 380.634674 293.056533 
L 385.883832 293.056533 
L 386.046179 286.705481 
L 391.295313 286.705481 
L 391.45766 293.056533 
L 396.706794 293.056533 
L 396.869141 286.251869 
L 407.52978 286.251869 
L 407.692103 290.334641 
L 412.941261 290.334641 
L 413.103608 286.478653 
L 418.352742 286.478653 
L 418.515089 287.612793 
L 423.764223 287.612793 
L 423.92657 290.107856 
L 429.175703 290.107856 
L 429.338051 285.798213 
L 439.998689 285.798213 
L 440.161037 280.127645 
L 445.41017 280.127645 
L 445.572518 276.044829 
L 450.821651 276.044829 
L 450.983999 288.520061 
L 456.233132 288.520061 
L 456.39548 286.251869 
L 461.644637 286.251869 
L 461.806985 289.881029 
L 467.056118 289.881029 
L 467.218466 284.437289 
L 472.467599 284.437289 
L 472.629946 283.076321 
L 477.87908 283.076321 
L 478.041427 283.529977 
L 483.290585 283.529977 
L 483.452908 283.756805 
L 488.702066 283.756805 
L 488.864413 284.210461 
L 494.113547 284.210461 
L 494.275894 288.520061 
L 499.525028 288.520061 
L 499.687375 288.293276 
L 504.936509 288.293276 
L 505.098856 278.086237 
L 510.348014 278.086237 
L 510.510337 284.437289 
L 515.759495 284.437289 
L 515.921842 289.200545 
L 521.170976 289.200545 
L 521.333323 278.313065 
L 526.582481 278.313065 
L 526.744804 287.839621 
L 531.993962 287.839621 
L 532.156285 280.127645 
L 537.405443 280.127645 
L 537.567766 285.571385 
L 542.816923 285.571385 
L 542.979247 276.952141 
L 548.228404 276.952141 
L 548.390728 280.127645 
L 553.639885 280.127645 
L 553.802257 276.044829 
L 559.051366 276.044829 
L 559.213738 284.664073 
L 564.462847 284.664073 
L 564.625219 281.715397 
L 569.874328 281.715397 
L 570.0367 281.488569 
L 575.285857 281.488569 
L 575.44818 287.385965 
L 580.697338 287.385965 
L 580.859661 288.293276 
L 586.108819 288.293276 
L 586.271142 285.344557 
L 591.5203 285.344557 
L 591.682623 279.900817 
L 596.931781 279.900817 
L 597.094104 274.003422 
L 602.343262 274.003422 
L 602.505633 277.405754 
L 607.754743 277.405754 
L 607.917114 283.756805 
L 613.166224 283.756805 
L 613.328595 277.632581 
L 618.577705 277.632581 
L 618.740076 280.581301 
L 622.636364 280.581301 
L 622.636364 280.581301 
" clip-path="url(#pd390e5ce8b)" style="fill: none; stroke: #1f77b4; stroke-opacity: 0.8; stroke-width: 1.5; stroke-linecap: square"/>
   </g>
   <g id="line2d_16">
    <path d="M 115.363636 120.671265 
L 120.721008 120.671265 
L 120.883352 76.440863 
L 126.132494 76.440863 
L 126.294838 80.523635 
L 131.54398 80.523635 
L 131.706324 70.31664 
L 136.955465 70.31664 
L 137.11781 75.306724 
L 142.366952 75.306724 
L 142.529297 85.740591 
L 147.778439 85.740591 
L 147.940784 94.586662 
L 153.189923 94.586662 
L 153.352268 124.527253 
L 158.60141 124.527253 
L 158.763754 130.651477 
L 164.012897 130.651477 
L 164.175241 153.560575 
L 169.424384 153.560575 
L 169.586725 163.540787 
L 174.835871 163.540787 
L 174.998212 190.30583 
L 180.247352 190.30583 
L 180.409699 194.161818 
L 185.658839 194.161818 
L 185.821186 211.400349 
L 191.070326 211.400349 
L 191.232673 219.56598 
L 196.481813 219.56598 
L 196.644154 229.772976 
L 201.8933 229.772976 
L 202.055641 227.051128 
L 207.304787 227.051128 
L 207.467128 232.041212 
L 212.716274 232.041212 
L 212.878615 239.299532 
L 218.127755 239.299532 
L 218.290102 246.784679 
L 223.539248 246.784679 
L 223.701583 253.135731 
L 228.950728 253.135731 
L 229.113076 238.165435 
L 234.362209 238.165435 
L 234.524557 258.57947 
L 239.773702 258.57947 
L 239.93605 254.26987 
L 245.185183 254.26987 
L 245.347531 254.043042 
L 250.596676 254.043042 
L 250.759024 251.321151 
L 256.008157 251.321151 
L 256.170505 251.774807 
L 261.41965 251.774807 
L 261.581985 259.486782 
L 266.831131 259.486782 
L 266.993478 256.311235 
L 272.242612 256.311235 
L 272.404959 259.033126 
L 277.654105 259.033126 
L 277.816452 259.940438 
L 283.065586 259.940438 
L 283.227933 258.352643 
L 288.477079 258.352643 
L 288.639426 264.250038 
L 293.88856 264.250038 
L 294.050907 264.02321 
L 299.300053 264.02321 
L 299.462388 264.703694 
L 304.711534 264.703694 
L 304.873881 265.384178 
L 310.123015 265.384178 
L 310.285362 272.869325 
L 315.534508 272.869325 
L 315.696855 270.147434 
L 320.945989 270.147434 
L 321.108336 262.435458 
L 326.357469 262.435458 
L 326.519817 263.569598 
L 331.768975 263.569598 
L 331.931298 255.177138 
L 337.180455 255.177138 
L 337.342803 270.374262 
L 342.591936 270.374262 
L 342.754284 256.538063 
L 348.003417 256.538063 
L 348.165765 267.198758 
L 353.414898 267.198758 
L 353.577246 264.476866 
L 358.826403 264.476866 
L 358.988751 266.064618 
L 364.237884 266.064618 
L 364.400232 264.703694 
L 369.649365 264.703694 
L 369.811712 261.301362 
L 375.060846 261.301362 
L 375.223193 248.826087 
L 380.472327 248.826087 
L 380.634674 271.508358 
L 385.883832 271.508358 
L 386.046179 259.486782 
L 391.295313 259.486782 
L 391.45766 266.064618 
L 396.706794 266.064618 
L 396.869141 270.374262 
L 402.118275 270.374262 
L 402.280622 270.60109 
L 407.52978 270.60109 
L 407.692103 269.920606 
L 412.941261 269.920606 
L 413.103608 259.486782 
L 418.352742 259.486782 
L 418.515089 265.83779 
L 423.764223 265.83779 
L 423.92657 274.683905 
L 429.175703 274.683905 
L 429.338051 265.384178 
L 434.587209 265.384178 
L 434.749556 261.52819 
L 439.998689 261.52819 
L 440.161037 268.106026 
L 445.41017 268.106026 
L 445.572518 254.496655 
L 450.821651 254.496655 
L 450.983999 263.34277 
L 456.233132 263.34277 
L 456.39548 266.518274 
L 461.644637 266.518274 
L 461.806985 264.250038 
L 467.056118 264.250038 
L 467.218466 262.435458 
L 472.467599 262.435458 
L 472.629946 264.703694 
L 477.87908 264.703694 
L 478.041427 264.476866 
L 483.290585 264.476866 
L 483.452908 266.97193 
L 488.702066 266.97193 
L 488.864413 267.65237 
L 494.113547 267.65237 
L 494.275894 258.57947 
L 499.525028 258.57947 
L 499.687375 270.147434 
L 504.936509 270.147434 
L 505.098856 267.425586 
L 510.348014 267.425586 
L 510.510337 270.827918 
L 521.170976 270.827918 
L 521.333323 258.806298 
L 526.582481 258.806298 
L 526.744804 261.981802 
L 531.993962 261.981802 
L 532.156285 268.559682 
L 537.405443 268.559682 
L 537.567766 267.879198 
L 542.816923 267.879198 
L 542.979247 262.662286 
L 548.228404 262.662286 
L 548.390728 264.703694 
L 553.639885 264.703694 
L 553.802257 261.981802 
L 559.051366 261.981802 
L 559.213738 258.806298 
L 564.462847 258.806298 
L 564.625219 267.425586 
L 569.874328 267.425586 
L 570.0367 256.538063 
L 575.285857 256.538063 
L 575.44818 274.230249 
L 580.697338 274.230249 
L 580.859661 269.013338 
L 586.108819 269.013338 
L 586.271142 260.847706 
L 591.5203 260.847706 
L 591.682623 262.20863 
L 596.931781 262.20863 
L 597.094104 260.620878 
L 602.343262 260.620878 
L 602.505633 264.250038 
L 607.754743 264.250038 
L 607.917114 255.857622 
L 613.166224 255.857622 
L 613.328595 268.559682 
L 618.577705 268.559682 
L 618.740076 259.71361 
L 622.636364 259.71361 
L 622.636364 259.71361 
" clip-path="url(#pd390e5ce8b)" style="fill: none; stroke: #ff7f0e; stroke-opacity: 0.8; stroke-width: 1.5; stroke-linecap: square"/>
   </g>
   <g id="patch_3">
    <path d="M 90 320.4 
L 90 43.2 
" style="fill: none; stroke: #000000; stroke-width: 0.8; stroke-linejoin: miter; stroke-linecap: square"/>
   </g>
   <g id="patch_4">
    <path d="M 648 320.4 
L 648 43.2 
" style="fill: none; stroke: #000000; stroke-width: 0.8; stroke-linejoin: miter; stroke-linecap: square"/>
   </g>
   <g id="patch_5">
    <path d="M 90 320.4 
L 648 320.4 
" style="fill: none; stroke: #000000; stroke-width: 0.8; stroke-linejoin: miter; stroke-linecap: square"/>
   </g>
   <g id="patch_6">
    <path d="M 90 43.2 
L 648 43.2 
" style="fill: none; stroke: #000000; stroke-width: 0.8; stroke-linejoin: miter; stroke-linecap: square"/>
   </g>
   <g id="text_17">
    <!-- Discriminator Accuracy on Real and Fake Samples During Training -->
    <g transform="translate(39.5625 37.2)scale(0.2 -0.2)">
     <defs>
      <path id="DejaVuSans-44" d="M 1259 4147 
L 1259 519 
L 2022 519 
Q 2988 519 3436 956 
Q 3884 1394 3884 2338 
Q 3884 3275 3436 3711 
Q 2988 4147 2022 4147 
L 1259 4147 
z
M 628 4666 
L 1925 4666 
Q 3281 4666 3915 4102 
Q 4550 3538 4550 2338 
Q 4550 1131 3912 565 
Q 3275 0 1925 0 
L 628 0 
L 628 4666 
z
" transform="scale(0.015625)"/>
      <path id="DejaVuSans-69" d="M 603 3500 
L 1178 3500 
L 1178 0 
L 603 0 
L 603 3500 
z
M 603 4863 
L 1178 4863 
L 1178 4134 
L 603 4134 
L 603 4863 
z
" transform="scale(0.015625)"/>
      <path id="DejaVuSans-6d" d="M 3328 2828 
Q 3544 3216 3844 3400 
Q 4144 3584 4550 3584 
Q 5097 3584 5394 3201 
Q 5691 2819 5691 2113 
L 5691 0 
L 5113 0 
L 5113 2094 
Q 5113 2597 4934 2840 
Q 4756 3084 4391 3084 
Q 3944 3084 3684 2787 
Q 3425 2491 3425 1978 
L 3425 0 
L 2847 0 
L 2847 2094 
Q 2847 2600 2669 2842 
Q 2491 3084 2119 3084 
Q 1678 3084 1418 2786 
Q 1159 2488 1159 1978 
L 1159 0 
L 581 0 
L 581 3500 
L 1159 3500 
L 1159 2956 
Q 1356 3278 1631 3431 
Q 1906 3584 2284 3584 
Q 2666 3584 2933 3390 
Q 3200 3197 3328 2828 
z
" transform="scale(0.015625)"/>
      <path id="DejaVuSans-6e" d="M 3513 2113 
L 3513 0 
L 2938 0 
L 2938 2094 
Q 2938 2591 2744 2837 
Q 2550 3084 2163 3084 
Q 1697 3084 1428 2787 
Q 1159 2491 1159 1978 
L 1159 0 
L 581 0 
L 581 3500 
L 1159 3500 
L 1159 2956 
Q 1366 3272 1645 3428 
Q 1925 3584 2291 3584 
Q 2894 3584 3203 3211 
Q 3513 2838 3513 2113 
z
" transform="scale(0.015625)"/>
      <path id="DejaVuSans-74" d="M 1172 4494 
L 1172 3500 
L 2356 3500 
L 2356 3053 
L 1172 3053 
L 1172 1153 
Q 1172 725 1289 603 
Q 1406 481 1766 481 
L 2356 481 
L 2356 0 
L 1766 0 
Q 1100 0 847 248 
Q 594 497 594 1153 
L 594 3053 
L 172 3053 
L 172 3500 
L 594 3500 
L 594 4494 
L 1172 4494 
z
" transform="scale(0.015625)"/>
      <path id="DejaVuSans-20" transform="scale(0.015625)"/>
      <path id="DejaVuSans-52" d="M 2841 2188 
Q 3044 2119 3236 1894 
Q 3428 1669 3622 1275 
L 4263 0 
L 3584 0 
L 2988 1197 
Q 2756 1666 2539 1819 
Q 2322 1972 1947 1972 
L 1259 1972 
L 1259 0 
L 628 0 
L 628 4666 
L 2053 4666 
Q 2853 4666 3247 4331 
Q 3641 3997 3641 3322 
Q 3641 2881 3436 2590 
Q 3231 2300 2841 2188 
z
M 1259 4147 
L 1259 2491 
L 2053 2491 
Q 2509 2491 2742 2702 
Q 2975 2913 2975 3322 
Q 2975 3731 2742 3939 
Q 2509 4147 2053 4147 
L 1259 4147 
z
" transform="scale(0.015625)"/>
      <path id="DejaVuSans-65" d="M 3597 1894 
L 3597 1613 
L 953 1613 
Q 991 1019 1311 708 
Q 1631 397 2203 397 
Q 2534 397 2845 478 
Q 3156 559 3463 722 
L 3463 178 
Q 3153 47 2828 -22 
Q 2503 -91 2169 -91 
Q 1331 -91 842 396 
Q 353 884 353 1716 
Q 353 2575 817 3079 
Q 1281 3584 2069 3584 
Q 2775 3584 3186 3129 
Q 3597 2675 3597 1894 
z
M 3022 2063 
Q 3016 2534 2758 2815 
Q 2500 3097 2075 3097 
Q 1594 3097 1305 2825 
Q 1016 2553 972 2059 
L 3022 2063 
z
" transform="scale(0.015625)"/>
      <path id="DejaVuSans-6c" d="M 603 4863 
L 1178 4863 
L 1178 0 
L 603 0 
L 603 4863 
z
" transform="scale(0.015625)"/>
      <path id="DejaVuSans-64" d="M 2906 2969 
L 2906 4863 
L 3481 4863 
L 3481 0 
L 2906 0 
L 2906 525 
Q 2725 213 2448 61 
Q 2172 -91 1784 -91 
Q 1150 -91 751 415 
Q 353 922 353 1747 
Q 353 2572 751 3078 
Q 1150 3584 1784 3584 
Q 2172 3584 2448 3432 
Q 2725 3281 2906 2969 
z
M 947 1747 
Q 947 1113 1208 752 
Q 1469 391 1925 391 
Q 2381 391 2643 752 
Q 2906 1113 2906 1747 
Q 2906 2381 2643 2742 
Q 2381 3103 1925 3103 
Q 1469 3103 1208 2742 
Q 947 2381 947 1747 
z
" transform="scale(0.015625)"/>
      <path id="DejaVuSans-46" d="M 628 4666 
L 3309 4666 
L 3309 4134 
L 1259 4134 
L 1259 2759 
L 3109 2759 
L 3109 2228 
L 1259 2228 
L 1259 0 
L 628 0 
L 628 4666 
z
" transform="scale(0.015625)"/>
      <path id="DejaVuSans-6b" d="M 581 4863 
L 1159 4863 
L 1159 1991 
L 2875 3500 
L 3609 3500 
L 1753 1863 
L 3688 0 
L 2938 0 
L 1159 1709 
L 1159 0 
L 581 0 
L 581 4863 
z
" transform="scale(0.015625)"/>
      <path id="DejaVuSans-53" d="M 3425 4513 
L 3425 3897 
Q 3066 4069 2747 4153 
Q 2428 4238 2131 4238 
Q 1616 4238 1336 4038 
Q 1056 3838 1056 3469 
Q 1056 3159 1242 3001 
Q 1428 2844 1947 2747 
L 2328 2669 
Q 3034 2534 3370 2195 
Q 3706 1856 3706 1288 
Q 3706 609 3251 259 
Q 2797 -91 1919 -91 
Q 1588 -91 1214 -16 
Q 841 59 441 206 
L 441 856 
Q 825 641 1194 531 
Q 1563 422 1919 422 
Q 2459 422 2753 634 
Q 3047 847 3047 1241 
Q 3047 1584 2836 1778 
Q 2625 1972 2144 2069 
L 1759 2144 
Q 1053 2284 737 2584 
Q 422 2884 422 3419 
Q 422 4038 858 4394 
Q 1294 4750 2059 4750 
Q 2388 4750 2728 4690 
Q 3069 4631 3425 4513 
z
" transform="scale(0.015625)"/>
      <path id="DejaVuSans-67" d="M 2906 1791 
Q 2906 2416 2648 2759 
Q 2391 3103 1925 3103 
Q 1463 3103 1205 2759 
Q 947 2416 947 1791 
Q 947 1169 1205 825 
Q 1463 481 1925 481 
Q 2391 481 2648 825 
Q 2906 1169 2906 1791 
z
M 3481 434 
Q 3481 -459 3084 -895 
Q 2688 -1331 1869 -1331 
Q 1566 -1331 1297 -1286 
Q 1028 -1241 775 -1147 
L 775 -588 
Q 1028 -725 1275 -790 
Q 1522 -856 1778 -856 
Q 2344 -856 2625 -561 
Q 2906 -266 2906 331 
L 2906 616 
Q 2728 306 2450 153 
Q 2172 0 1784 0 
Q 1141 0 747 490 
Q 353 981 353 1791 
Q 353 2603 747 3093 
Q 1141 3584 1784 3584 
Q 2172 3584 2450 3431 
Q 2728 3278 2906 2969 
L 2906 3500 
L 3481 3500 
L 3481 434 
z
" transform="scale(0.015625)"/>
      <path id="DejaVuSans-54" d="M -19 4666 
L 3928 4666 
L 3928 4134 
L 2272 4134 
L 2272 0 
L 1638 0 
L 1638 4134 
L -19 4134 
L -19 4666 
z
" transform="scale(0.015625)"/>
     </defs>
     <use xlink:href="#DejaVuSans-44"/>
     <use xlink:href="#DejaVuSans-69" x="77.001953"/>
     <use xlink:href="#DejaVuSans-73" x="104.785156"/>
     <use xlink:href="#DejaVuSans-63" x="156.884766"/>
     <use xlink:href="#DejaVuSans-72" x="211.865234"/>
     <use xlink:href="#DejaVuSans-69" x="252.978516"/>
     <use xlink:href="#DejaVuSans-6d" x="280.761719"/>
     <use xlink:href="#DejaVuSans-69" x="378.173828"/>
     <use xlink:href="#DejaVuSans-6e" x="405.957031"/>
     <use xlink:href="#DejaVuSans-61" x="469.335938"/>
     <use xlink:href="#DejaVuSans-74" x="530.615234"/>
     <use xlink:href="#DejaVuSans-6f" x="569.824219"/>
     <use xlink:href="#DejaVuSans-72" x="631.005859"/>
     <use xlink:href="#DejaVuSans-20" x="672.119141"/>
     <use xlink:href="#DejaVuSans-41" x="703.90625"/>
     <use xlink:href="#DejaVuSans-63" x="770.564453"/>
     <use xlink:href="#DejaVuSans-63" x="825.544922"/>
     <use xlink:href="#DejaVuSans-75" x="880.525391"/>
     <use xlink:href="#DejaVuSans-72" x="943.904297"/>
     <use xlink:href="#DejaVuSans-61" x="985.017578"/>
     <use xlink:href="#DejaVuSans-63" x="1046.296875"/>
     <use xlink:href="#DejaVuSans-79" x="1101.277344"/>
     <use xlink:href="#DejaVuSans-20" x="1160.457031"/>
     <use xlink:href="#DejaVuSans-6f" x="1192.244141"/>
     <use xlink:href="#DejaVuSans-6e" x="1253.425781"/>
     <use xlink:href="#DejaVuSans-20" x="1316.804688"/>
     <use xlink:href="#DejaVuSans-52" x="1348.591797"/>
     <use xlink:href="#DejaVuSans-65" x="1413.574219"/>
     <use xlink:href="#DejaVuSans-61" x="1475.097656"/>
     <use xlink:href="#DejaVuSans-6c" x="1536.376953"/>
     <use xlink:href="#DejaVuSans-20" x="1564.160156"/>
     <use xlink:href="#DejaVuSans-61" x="1595.947266"/>
     <use xlink:href="#DejaVuSans-6e" x="1657.226562"/>
     <use xlink:href="#DejaVuSans-64" x="1720.605469"/>
     <use xlink:href="#DejaVuSans-20" x="1784.082031"/>
     <use xlink:href="#DejaVuSans-46" x="1815.869141"/>
     <use xlink:href="#DejaVuSans-61" x="1864.263672"/>
     <use xlink:href="#DejaVuSans-6b" x="1925.542969"/>
     <use xlink:href="#DejaVuSans-65" x="1979.828125"/>
     <use xlink:href="#DejaVuSans-20" x="2041.351562"/>
     <use xlink:href="#DejaVuSans-53" x="2073.138672"/>
     <use xlink:href="#DejaVuSans-61" x="2136.615234"/>
     <use xlink:href="#DejaVuSans-6d" x="2197.894531"/>
     <use xlink:href="#DejaVuSans-70" x="2295.306641"/>
     <use xlink:href="#DejaVuSans-6c" x="2358.783203"/>
     <use xlink:href="#DejaVuSans-65" x="2386.566406"/>
     <use xlink:href="#DejaVuSans-73" x="2448.089844"/>
     <use xlink:href="#DejaVuSans-20" x="2500.189453"/>
     <use xlink:href="#DejaVuSans-44" x="2531.976562"/>
     <use xlink:href="#DejaVuSans-75" x="2608.978516"/>
     <use xlink:href="#DejaVuSans-72" x="2672.357422"/>
     <use xlink:href="#DejaVuSans-69" x="2713.470703"/>
     <use xlink:href="#DejaVuSans-6e" x="2741.253906"/>
     <use xlink:href="#DejaVuSans-67" x="2804.632812"/>
     <use xlink:href="#DejaVuSans-20" x="2868.109375"/>
     <use xlink:href="#DejaVuSans-54" x="2899.896484"/>
     <use xlink:href="#DejaVuSans-72" x="2946.230469"/>
     <use xlink:href="#DejaVuSans-61" x="2987.34375"/>
     <use xlink:href="#DejaVuSans-69" x="3048.623047"/>
     <use xlink:href="#DejaVuSans-6e" x="3076.40625"/>
     <use xlink:href="#DejaVuSans-69" x="3139.785156"/>
     <use xlink:href="#DejaVuSans-6e" x="3167.568359"/>
     <use xlink:href="#DejaVuSans-67" x="3230.947266"/>
    </g>
   </g>
   <g id="legend_1">
    <g id="patch_7">
     <path d="M 541.70625 80.55625 
L 641 80.55625 
Q 643 80.55625 643 78.55625 
L 643 50.2 
Q 643 48.2 641 48.2 
L 541.70625 48.2 
Q 539.70625 48.2 539.70625 50.2 
L 539.70625 78.55625 
Q 539.70625 80.55625 541.70625 80.55625 
z
" style="fill: #ffffff; opacity: 0.8; stroke: #cccccc; stroke-linejoin: miter"/>
    </g>
    <g id="line2d_17">
     <path d="M 543.70625 56.298437 
L 553.70625 56.298437 
L 563.70625 56.298437 
" style="fill: none; stroke: #1f77b4; stroke-opacity: 0.8; stroke-width: 1.5; stroke-linecap: square"/>
    </g>
    <g id="text_18">
     <!-- Real samples -->
     <g transform="translate(571.70625 59.798437)scale(0.1 -0.1)">
      <use xlink:href="#DejaVuSans-52"/>
      <use xlink:href="#DejaVuSans-65" x="64.982422"/>
      <use xlink:href="#DejaVuSans-61" x="126.505859"/>
      <use xlink:href="#DejaVuSans-6c" x="187.785156"/>
      <use xlink:href="#DejaVuSans-20" x="215.568359"/>
      <use xlink:href="#DejaVuSans-73" x="247.355469"/>
      <use xlink:href="#DejaVuSans-61" x="299.455078"/>
      <use xlink:href="#DejaVuSans-6d" x="360.734375"/>
      <use xlink:href="#DejaVuSans-70" x="458.146484"/>
      <use xlink:href="#DejaVuSans-6c" x="521.623047"/>
      <use xlink:href="#DejaVuSans-65" x="549.40625"/>
      <use xlink:href="#DejaVuSans-73" x="610.929688"/>
     </g>
    </g>
    <g id="line2d_18">
     <path d="M 543.70625 70.976562 
L 553.70625 70.976562 
L 563.70625 70.976562 
" style="fill: none; stroke: #ff7f0e; stroke-opacity: 0.8; stroke-width: 1.5; stroke-linecap: square"/>
    </g>
    <g id="text_19">
     <!-- Fake samples -->
     <g transform="translate(571.70625 74.476562)scale(0.1 -0.1)">
      <use xlink:href="#DejaVuSans-46"/>
      <use xlink:href="#DejaVuSans-61" x="48.394531"/>
      <use xlink:href="#DejaVuSans-6b" x="109.673828"/>
      <use xlink:href="#DejaVuSans-65" x="163.958984"/>
      <use xlink:href="#DejaVuSans-20" x="225.482422"/>
      <use xlink:href="#DejaVuSans-73" x="257.269531"/>
      <use xlink:href="#DejaVuSans-61" x="309.369141"/>
      <use xlink:href="#DejaVuSans-6d" x="370.648438"/>
      <use xlink:href="#DejaVuSans-70" x="468.060547"/>
      <use xlink:href="#DejaVuSans-6c" x="531.537109"/>
      <use xlink:href="#DejaVuSans-65" x="559.320312"/>
      <use xlink:href="#DejaVuSans-73" x="620.84375"/>
     </g>
    </g>
   </g>
  </g>
 </g>
 <defs>
  <clipPath id="pd390e5ce8b">
   <rect x="90" y="43.2" width="558" height="277.2"/>
  </clipPath>
 </defs>
</svg>
