<?xml version="1.0" encoding="utf-8" standalone="no"?>
<!DOCTYPE svg PUBLIC "-//W3C//DTD SVG 1.1//EN"
  "http://www.w3.org/Graphics/SVG/1.1/DTD/svg11.dtd">
<svg xmlns:xlink="http://www.w3.org/1999/xlink" width="720pt" height="360pt" viewBox="0 0 720 360" xmlns="http://www.w3.org/2000/svg" version="1.1">
 <metadata>
  <rdf:RDF xmlns:dc="http://purl.org/dc/elements/1.1/" xmlns:cc="http://creativecommons.org/ns#" xmlns:rdf="http://www.w3.org/1999/02/22-rdf-syntax-ns#">
   <cc:Work>
    <dc:type rdf:resource="http://purl.org/dc/dcmitype/StillImage"/>
    <dc:date>2022-11-30T10:49:30.264402</dc:date>
    <dc:format>image/svg+xml</dc:format>
    <dc:creator>
     <cc:Agent>
      <dc:title>Matplotlib v3.5.2, https://matplotlib.org/</dc:title>
     </cc:Agent>
    </dc:creator>
   </cc:Work>
  </rdf:RDF>
 </metadata>
 <defs>
  <style type="text/css">*{stroke-linejoin: round; stroke-linecap: butt}</style>
 </defs>
 <g id="figure_1">
  <g id="patch_1">
   <path d="M 0 360 
L 720 360 
L 720 0 
L 0 0 
L 0 360 
z
" style="fill: none"/>
  </g>
  <g id="axes_1">
   <g id="patch_2">
    <path d="M 90 315 
L 648 315 
L 648 43.2 
L 90 43.2 
z
" style="fill: #ffffff"/>
   </g>
   <g id="matplotlib.axis_1">
    <g id="xtick_1">
     <g id="line2d_1">
      <defs>
       <path id="m6a794e5ce9" d="M 0 0 
L 0 3.5 
" style="stroke: #000000; stroke-width: 0.8"/>
      </defs>
      <g>
       <use xlink:href="#m6a794e5ce9" x="115.363636" y="315" style="stroke: #000000; stroke-width: 0.8"/>
      </g>
     </g>
     <g id="text_1">
      <!-- 0 -->
      <g transform="translate(112.182386 329.598437)scale(0.1 -0.1)">
       <defs>
        <path id="DejaVuSans-30" d="M 2034 4250 
Q 1547 4250 1301 3770 
Q 1056 3291 1056 2328 
Q 1056 1369 1301 889 
Q 1547 409 2034 409 
Q 2525 409 2770 889 
Q 3016 1369 3016 2328 
Q 3016 3291 2770 3770 
Q 2525 4250 2034 4250 
z
M 2034 4750 
Q 2819 4750 3233 4129 
Q 3647 3509 3647 2328 
Q 3647 1150 3233 529 
Q 2819 -91 2034 -91 
Q 1250 -91 836 529 
Q 422 1150 422 2328 
Q 422 3509 836 4129 
Q 1250 4750 2034 4750 
z
" transform="scale(0.015625)"/>
       </defs>
       <use xlink:href="#DejaVuSans-30"/>
      </g>
     </g>
    </g>
    <g id="xtick_2">
     <g id="line2d_2">
      <g>
       <use xlink:href="#m6a794e5ce9" x="187.836688" y="315" style="stroke: #000000; stroke-width: 0.8"/>
      </g>
     </g>
     <g id="text_2">
      <!-- 1 -->
      <g transform="translate(184.655438 329.598437)scale(0.1 -0.1)">
       <defs>
        <path id="DejaVuSans-31" d="M 794 531 
L 1825 531 
L 1825 4091 
L 703 3866 
L 703 4441 
L 1819 4666 
L 2450 4666 
L 2450 531 
L 3481 531 
L 3481 0 
L 794 0 
L 794 531 
z
" transform="scale(0.015625)"/>
       </defs>
       <use xlink:href="#DejaVuSans-31"/>
      </g>
     </g>
    </g>
    <g id="xtick_3">
     <g id="line2d_3">
      <g>
       <use xlink:href="#m6a794e5ce9" x="260.30974" y="315" style="stroke: #000000; stroke-width: 0.8"/>
      </g>
     </g>
     <g id="text_3">
      <!-- 2 -->
      <g transform="translate(257.12849 329.598437)scale(0.1 -0.1)">
       <defs>
        <path id="DejaVuSans-32" d="M 1228 531 
L 3431 531 
L 3431 0 
L 469 0 
L 469 531 
Q 828 903 1448 1529 
Q 2069 2156 2228 2338 
Q 2531 2678 2651 2914 
Q 2772 3150 2772 3378 
Q 2772 3750 2511 3984 
Q 2250 4219 1831 4219 
Q 1534 4219 1204 4116 
Q 875 4013 500 3803 
L 500 4441 
Q 881 4594 1212 4672 
Q 1544 4750 1819 4750 
Q 2544 4750 2975 4387 
Q 3406 4025 3406 3419 
Q 3406 3131 3298 2873 
Q 3191 2616 2906 2266 
Q 2828 2175 2409 1742 
Q 1991 1309 1228 531 
z
" transform="scale(0.015625)"/>
       </defs>
       <use xlink:href="#DejaVuSans-32"/>
      </g>
     </g>
    </g>
    <g id="xtick_4">
     <g id="line2d_4">
      <g>
       <use xlink:href="#m6a794e5ce9" x="332.782792" y="315" style="stroke: #000000; stroke-width: 0.8"/>
      </g>
     </g>
     <g id="text_4">
      <!-- 3 -->
      <g transform="translate(329.601542 329.598437)scale(0.1 -0.1)">
       <defs>
        <path id="DejaVuSans-33" d="M 2597 2516 
Q 3050 2419 3304 2112 
Q 3559 1806 3559 1356 
Q 3559 666 3084 287 
Q 2609 -91 1734 -91 
Q 1441 -91 1130 -33 
Q 819 25 488 141 
L 488 750 
Q 750 597 1062 519 
Q 1375 441 1716 441 
Q 2309 441 2620 675 
Q 2931 909 2931 1356 
Q 2931 1769 2642 2001 
Q 2353 2234 1838 2234 
L 1294 2234 
L 1294 2753 
L 1863 2753 
Q 2328 2753 2575 2939 
Q 2822 3125 2822 3475 
Q 2822 3834 2567 4026 
Q 2313 4219 1838 4219 
Q 1578 4219 1281 4162 
Q 984 4106 628 3988 
L 628 4550 
Q 988 4650 1302 4700 
Q 1616 4750 1894 4750 
Q 2613 4750 3031 4423 
Q 3450 4097 3450 3541 
Q 3450 3153 3228 2886 
Q 3006 2619 2597 2516 
z
" transform="scale(0.015625)"/>
       </defs>
       <use xlink:href="#DejaVuSans-33"/>
      </g>
     </g>
    </g>
    <g id="xtick_5">
     <g id="line2d_5">
      <g>
       <use xlink:href="#m6a794e5ce9" x="405.255844" y="315" style="stroke: #000000; stroke-width: 0.8"/>
      </g>
     </g>
     <g id="text_5">
      <!-- 4 -->
      <g transform="translate(402.074594 329.598437)scale(0.1 -0.1)">
       <defs>
        <path id="DejaVuSans-34" d="M 2419 4116 
L 825 1625 
L 2419 1625 
L 2419 4116 
z
M 2253 4666 
L 3047 4666 
L 3047 1625 
L 3713 1625 
L 3713 1100 
L 3047 1100 
L 3047 0 
L 2419 0 
L 2419 1100 
L 313 1100 
L 313 1709 
L 2253 4666 
z
" transform="scale(0.015625)"/>
       </defs>
       <use xlink:href="#DejaVuSans-34"/>
      </g>
     </g>
    </g>
    <g id="xtick_6">
     <g id="line2d_6">
      <g>
       <use xlink:href="#m6a794e5ce9" x="477.728896" y="315" style="stroke: #000000; stroke-width: 0.8"/>
      </g>
     </g>
     <g id="text_6">
      <!-- 5 -->
      <g transform="translate(474.547646 329.598437)scale(0.1 -0.1)">
       <defs>
        <path id="DejaVuSans-35" d="M 691 4666 
L 3169 4666 
L 3169 4134 
L 1269 4134 
L 1269 2991 
Q 1406 3038 1543 3061 
Q 1681 3084 1819 3084 
Q 2600 3084 3056 2656 
Q 3513 2228 3513 1497 
Q 3513 744 3044 326 
Q 2575 -91 1722 -91 
Q 1428 -91 1123 -41 
Q 819 9 494 109 
L 494 744 
Q 775 591 1075 516 
Q 1375 441 1709 441 
Q 2250 441 2565 725 
Q 2881 1009 2881 1497 
Q 2881 1984 2565 2268 
Q 2250 2553 1709 2553 
Q 1456 2553 1204 2497 
Q 953 2441 691 2322 
L 691 4666 
z
" transform="scale(0.015625)"/>
       </defs>
       <use xlink:href="#DejaVuSans-35"/>
      </g>
     </g>
    </g>
    <g id="xtick_7">
     <g id="line2d_7">
      <g>
       <use xlink:href="#m6a794e5ce9" x="550.201947" y="315" style="stroke: #000000; stroke-width: 0.8"/>
      </g>
     </g>
     <g id="text_7">
      <!-- 6 -->
      <g transform="translate(547.020697 329.598437)scale(0.1 -0.1)">
       <defs>
        <path id="DejaVuSans-36" d="M 2113 2584 
Q 1688 2584 1439 2293 
Q 1191 2003 1191 1497 
Q 1191 994 1439 701 
Q 1688 409 2113 409 
Q 2538 409 2786 701 
Q 3034 994 3034 1497 
Q 3034 2003 2786 2293 
Q 2538 2584 2113 2584 
z
M 3366 4563 
L 3366 3988 
Q 3128 4100 2886 4159 
Q 2644 4219 2406 4219 
Q 1781 4219 1451 3797 
Q 1122 3375 1075 2522 
Q 1259 2794 1537 2939 
Q 1816 3084 2150 3084 
Q 2853 3084 3261 2657 
Q 3669 2231 3669 1497 
Q 3669 778 3244 343 
Q 2819 -91 2113 -91 
Q 1303 -91 875 529 
Q 447 1150 447 2328 
Q 447 3434 972 4092 
Q 1497 4750 2381 4750 
Q 2619 4750 2861 4703 
Q 3103 4656 3366 4563 
z
" transform="scale(0.015625)"/>
       </defs>
       <use xlink:href="#DejaVuSans-36"/>
      </g>
     </g>
    </g>
    <g id="xtick_8">
     <g id="line2d_8">
      <g>
       <use xlink:href="#m6a794e5ce9" x="622.674999" y="315" style="stroke: #000000; stroke-width: 0.8"/>
      </g>
     </g>
     <g id="text_8">
      <!-- 7 -->
      <g transform="translate(619.493749 329.598437)scale(0.1 -0.1)">
       <defs>
        <path id="DejaVuSans-37" d="M 525 4666 
L 3525 4666 
L 3525 4397 
L 1831 0 
L 1172 0 
L 2766 4134 
L 525 4134 
L 525 4666 
z
" transform="scale(0.015625)"/>
       </defs>
       <use xlink:href="#DejaVuSans-37"/>
      </g>
     </g>
    </g>
    <g id="text_9">
     <!-- Epochs -->
     <g transform="translate(351.084375 343.276563)scale(0.1 -0.1)">
      <defs>
       <path id="DejaVuSans-45" d="M 628 4666 
L 3578 4666 
L 3578 4134 
L 1259 4134 
L 1259 2753 
L 3481 2753 
L 3481 2222 
L 1259 2222 
L 1259 531 
L 3634 531 
L 3634 0 
L 628 0 
L 628 4666 
z
" transform="scale(0.015625)"/>
       <path id="DejaVuSans-70" d="M 1159 525 
L 1159 -1331 
L 581 -1331 
L 581 3500 
L 1159 3500 
L 1159 2969 
Q 1341 3281 1617 3432 
Q 1894 3584 2278 3584 
Q 2916 3584 3314 3078 
Q 3713 2572 3713 1747 
Q 3713 922 3314 415 
Q 2916 -91 2278 -91 
Q 1894 -91 1617 61 
Q 1341 213 1159 525 
z
M 3116 1747 
Q 3116 2381 2855 2742 
Q 2594 3103 2138 3103 
Q 1681 3103 1420 2742 
Q 1159 2381 1159 1747 
Q 1159 1113 1420 752 
Q 1681 391 2138 391 
Q 2594 391 2855 752 
Q 3116 1113 3116 1747 
z
" transform="scale(0.015625)"/>
       <path id="DejaVuSans-6f" d="M 1959 3097 
Q 1497 3097 1228 2736 
Q 959 2375 959 1747 
Q 959 1119 1226 758 
Q 1494 397 1959 397 
Q 2419 397 2687 759 
Q 2956 1122 2956 1747 
Q 2956 2369 2687 2733 
Q 2419 3097 1959 3097 
z
M 1959 3584 
Q 2709 3584 3137 3096 
Q 3566 2609 3566 1747 
Q 3566 888 3137 398 
Q 2709 -91 1959 -91 
Q 1206 -91 779 398 
Q 353 888 353 1747 
Q 353 2609 779 3096 
Q 1206 3584 1959 3584 
z
" transform="scale(0.015625)"/>
       <path id="DejaVuSans-63" d="M 3122 3366 
L 3122 2828 
Q 2878 2963 2633 3030 
Q 2388 3097 2138 3097 
Q 1578 3097 1268 2742 
Q 959 2388 959 1747 
Q 959 1106 1268 751 
Q 1578 397 2138 397 
Q 2388 397 2633 464 
Q 2878 531 3122 666 
L 3122 134 
Q 2881 22 2623 -34 
Q 2366 -91 2075 -91 
Q 1284 -91 818 406 
Q 353 903 353 1747 
Q 353 2603 823 3093 
Q 1294 3584 2113 3584 
Q 2378 3584 2631 3529 
Q 2884 3475 3122 3366 
z
" transform="scale(0.015625)"/>
       <path id="DejaVuSans-68" d="M 3513 2113 
L 3513 0 
L 2938 0 
L 2938 2094 
Q 2938 2591 2744 2837 
Q 2550 3084 2163 3084 
Q 1697 3084 1428 2787 
Q 1159 2491 1159 1978 
L 1159 0 
L 581 0 
L 581 4863 
L 1159 4863 
L 1159 2956 
Q 1366 3272 1645 3428 
Q 1925 3584 2291 3584 
Q 2894 3584 3203 3211 
Q 3513 2838 3513 2113 
z
" transform="scale(0.015625)"/>
       <path id="DejaVuSans-73" d="M 2834 3397 
L 2834 2853 
Q 2591 2978 2328 3040 
Q 2066 3103 1784 3103 
Q 1356 3103 1142 2972 
Q 928 2841 928 2578 
Q 928 2378 1081 2264 
Q 1234 2150 1697 2047 
L 1894 2003 
Q 2506 1872 2764 1633 
Q 3022 1394 3022 966 
Q 3022 478 2636 193 
Q 2250 -91 1575 -91 
Q 1294 -91 989 -36 
Q 684 19 347 128 
L 347 722 
Q 666 556 975 473 
Q 1284 391 1588 391 
Q 1994 391 2212 530 
Q 2431 669 2431 922 
Q 2431 1156 2273 1281 
Q 2116 1406 1581 1522 
L 1381 1569 
Q 847 1681 609 1914 
Q 372 2147 372 2553 
Q 372 3047 722 3315 
Q 1072 3584 1716 3584 
Q 2034 3584 2315 3537 
Q 2597 3491 2834 3397 
z
" transform="scale(0.015625)"/>
      </defs>
      <use xlink:href="#DejaVuSans-45"/>
      <use xlink:href="#DejaVuSans-70" x="63.183594"/>
      <use xlink:href="#DejaVuSans-6f" x="126.660156"/>
      <use xlink:href="#DejaVuSans-63" x="187.841797"/>
      <use xlink:href="#DejaVuSans-68" x="242.822266"/>
      <use xlink:href="#DejaVuSans-73" x="306.201172"/>
     </g>
    </g>
   </g>
   <g id="matplotlib.axis_2">
    <g id="ytick_1">
     <g id="line2d_9">
      <defs>
       <path id="m7e10bd401d" d="M 0 0 
L -3.5 0 
" style="stroke: #000000; stroke-width: 0.8"/>
      </defs>
      <g>
       <use xlink:href="#m7e10bd401d" x="90" y="306.790492" style="stroke: #000000; stroke-width: 0.8"/>
      </g>
     </g>
     <g id="text_10">
      <!-- 0.65 -->
      <g transform="translate(60.734375 310.589711)scale(0.1 -0.1)">
       <defs>
        <path id="DejaVuSans-2e" d="M 684 794 
L 1344 794 
L 1344 0 
L 684 0 
L 684 794 
z
" transform="scale(0.015625)"/>
       </defs>
       <use xlink:href="#DejaVuSans-30"/>
       <use xlink:href="#DejaVuSans-2e" x="63.623047"/>
       <use xlink:href="#DejaVuSans-36" x="95.410156"/>
       <use xlink:href="#DejaVuSans-35" x="159.033203"/>
      </g>
     </g>
    </g>
    <g id="ytick_2">
     <g id="line2d_10">
      <g>
       <use xlink:href="#m7e10bd401d" x="90" y="269.945621" style="stroke: #000000; stroke-width: 0.8"/>
      </g>
     </g>
     <g id="text_11">
      <!-- 0.70 -->
      <g transform="translate(60.734375 273.744839)scale(0.1 -0.1)">
       <use xlink:href="#DejaVuSans-30"/>
       <use xlink:href="#DejaVuSans-2e" x="63.623047"/>
       <use xlink:href="#DejaVuSans-37" x="95.410156"/>
       <use xlink:href="#DejaVuSans-30" x="159.033203"/>
      </g>
     </g>
    </g>
    <g id="ytick_3">
     <g id="line2d_11">
      <g>
       <use xlink:href="#m7e10bd401d" x="90" y="233.100749" style="stroke: #000000; stroke-width: 0.8"/>
      </g>
     </g>
     <g id="text_12">
      <!-- 0.75 -->
      <g transform="translate(60.734375 236.899968)scale(0.1 -0.1)">
       <use xlink:href="#DejaVuSans-30"/>
       <use xlink:href="#DejaVuSans-2e" x="63.623047"/>
       <use xlink:href="#DejaVuSans-37" x="95.410156"/>
       <use xlink:href="#DejaVuSans-35" x="159.033203"/>
      </g>
     </g>
    </g>
    <g id="ytick_4">
     <g id="line2d_12">
      <g>
       <use xlink:href="#m7e10bd401d" x="90" y="196.255877" style="stroke: #000000; stroke-width: 0.8"/>
      </g>
     </g>
     <g id="text_13">
      <!-- 0.80 -->
      <g transform="translate(60.734375 200.055096)scale(0.1 -0.1)">
       <defs>
        <path id="DejaVuSans-38" d="M 2034 2216 
Q 1584 2216 1326 1975 
Q 1069 1734 1069 1313 
Q 1069 891 1326 650 
Q 1584 409 2034 409 
Q 2484 409 2743 651 
Q 3003 894 3003 1313 
Q 3003 1734 2745 1975 
Q 2488 2216 2034 2216 
z
M 1403 2484 
Q 997 2584 770 2862 
Q 544 3141 544 3541 
Q 544 4100 942 4425 
Q 1341 4750 2034 4750 
Q 2731 4750 3128 4425 
Q 3525 4100 3525 3541 
Q 3525 3141 3298 2862 
Q 3072 2584 2669 2484 
Q 3125 2378 3379 2068 
Q 3634 1759 3634 1313 
Q 3634 634 3220 271 
Q 2806 -91 2034 -91 
Q 1263 -91 848 271 
Q 434 634 434 1313 
Q 434 1759 690 2068 
Q 947 2378 1403 2484 
z
M 1172 3481 
Q 1172 3119 1398 2916 
Q 1625 2713 2034 2713 
Q 2441 2713 2670 2916 
Q 2900 3119 2900 3481 
Q 2900 3844 2670 4047 
Q 2441 4250 2034 4250 
Q 1625 4250 1398 4047 
Q 1172 3844 1172 3481 
z
" transform="scale(0.015625)"/>
       </defs>
       <use xlink:href="#DejaVuSans-30"/>
       <use xlink:href="#DejaVuSans-2e" x="63.623047"/>
       <use xlink:href="#DejaVuSans-38" x="95.410156"/>
       <use xlink:href="#DejaVuSans-30" x="159.033203"/>
      </g>
     </g>
    </g>
    <g id="ytick_5">
     <g id="line2d_13">
      <g>
       <use xlink:href="#m7e10bd401d" x="90" y="159.411006" style="stroke: #000000; stroke-width: 0.8"/>
      </g>
     </g>
     <g id="text_14">
      <!-- 0.85 -->
      <g transform="translate(60.734375 163.210225)scale(0.1 -0.1)">
       <use xlink:href="#DejaVuSans-30"/>
       <use xlink:href="#DejaVuSans-2e" x="63.623047"/>
       <use xlink:href="#DejaVuSans-38" x="95.410156"/>
       <use xlink:href="#DejaVuSans-35" x="159.033203"/>
      </g>
     </g>
    </g>
    <g id="ytick_6">
     <g id="line2d_14">
      <g>
       <use xlink:href="#m7e10bd401d" x="90" y="122.566134" style="stroke: #000000; stroke-width: 0.8"/>
      </g>
     </g>
     <g id="text_15">
      <!-- 0.90 -->
      <g transform="translate(60.734375 126.365353)scale(0.1 -0.1)">
       <defs>
        <path id="DejaVuSans-39" d="M 703 97 
L 703 672 
Q 941 559 1184 500 
Q 1428 441 1663 441 
Q 2288 441 2617 861 
Q 2947 1281 2994 2138 
Q 2813 1869 2534 1725 
Q 2256 1581 1919 1581 
Q 1219 1581 811 2004 
Q 403 2428 403 3163 
Q 403 3881 828 4315 
Q 1253 4750 1959 4750 
Q 2769 4750 3195 4129 
Q 3622 3509 3622 2328 
Q 3622 1225 3098 567 
Q 2575 -91 1691 -91 
Q 1453 -91 1209 -44 
Q 966 3 703 97 
z
M 1959 2075 
Q 2384 2075 2632 2365 
Q 2881 2656 2881 3163 
Q 2881 3666 2632 3958 
Q 2384 4250 1959 4250 
Q 1534 4250 1286 3958 
Q 1038 3666 1038 3163 
Q 1038 2656 1286 2365 
Q 1534 2075 1959 2075 
z
" transform="scale(0.015625)"/>
       </defs>
       <use xlink:href="#DejaVuSans-30"/>
       <use xlink:href="#DejaVuSans-2e" x="63.623047"/>
       <use xlink:href="#DejaVuSans-39" x="95.410156"/>
       <use xlink:href="#DejaVuSans-30" x="159.033203"/>
      </g>
     </g>
    </g>
    <g id="ytick_7">
     <g id="line2d_15">
      <g>
       <use xlink:href="#m7e10bd401d" x="90" y="85.721263" style="stroke: #000000; stroke-width: 0.8"/>
      </g>
     </g>
     <g id="text_16">
      <!-- 0.95 -->
      <g transform="translate(60.734375 89.520482)scale(0.1 -0.1)">
       <use xlink:href="#DejaVuSans-30"/>
       <use xlink:href="#DejaVuSans-2e" x="63.623047"/>
       <use xlink:href="#DejaVuSans-39" x="95.410156"/>
       <use xlink:href="#DejaVuSans-35" x="159.033203"/>
      </g>
     </g>
    </g>
    <g id="ytick_8">
     <g id="line2d_16">
      <g>
       <use xlink:href="#m7e10bd401d" x="90" y="48.876391" style="stroke: #000000; stroke-width: 0.8"/>
      </g>
     </g>
     <g id="text_17">
      <!-- 1.00 -->
      <g transform="translate(60.734375 52.67561)scale(0.1 -0.1)">
       <use xlink:href="#DejaVuSans-31"/>
       <use xlink:href="#DejaVuSans-2e" x="63.623047"/>
       <use xlink:href="#DejaVuSans-30" x="95.410156"/>
       <use xlink:href="#DejaVuSans-30" x="159.033203"/>
      </g>
     </g>
    </g>
    <g id="text_18">
     <!-- Accuracy -->
     <g transform="translate(54.654687 201.928125)rotate(-90)scale(0.1 -0.1)">
      <defs>
       <path id="DejaVuSans-41" d="M 2188 4044 
L 1331 1722 
L 3047 1722 
L 2188 4044 
z
M 1831 4666 
L 2547 4666 
L 4325 0 
L 3669 0 
L 3244 1197 
L 1141 1197 
L 716 0 
L 50 0 
L 1831 4666 
z
" transform="scale(0.015625)"/>
       <path id="DejaVuSans-75" d="M 544 1381 
L 544 3500 
L 1119 3500 
L 1119 1403 
Q 1119 906 1312 657 
Q 1506 409 1894 409 
Q 2359 409 2629 706 
Q 2900 1003 2900 1516 
L 2900 3500 
L 3475 3500 
L 3475 0 
L 2900 0 
L 2900 538 
Q 2691 219 2414 64 
Q 2138 -91 1772 -91 
Q 1169 -91 856 284 
Q 544 659 544 1381 
z
M 1991 3584 
L 1991 3584 
z
" transform="scale(0.015625)"/>
       <path id="DejaVuSans-72" d="M 2631 2963 
Q 2534 3019 2420 3045 
Q 2306 3072 2169 3072 
Q 1681 3072 1420 2755 
Q 1159 2438 1159 1844 
L 1159 0 
L 581 0 
L 581 3500 
L 1159 3500 
L 1159 2956 
Q 1341 3275 1631 3429 
Q 1922 3584 2338 3584 
Q 2397 3584 2469 3576 
Q 2541 3569 2628 3553 
L 2631 2963 
z
" transform="scale(0.015625)"/>
       <path id="DejaVuSans-61" d="M 2194 1759 
Q 1497 1759 1228 1600 
Q 959 1441 959 1056 
Q 959 750 1161 570 
Q 1363 391 1709 391 
Q 2188 391 2477 730 
Q 2766 1069 2766 1631 
L 2766 1759 
L 2194 1759 
z
M 3341 1997 
L 3341 0 
L 2766 0 
L 2766 531 
Q 2569 213 2275 61 
Q 1981 -91 1556 -91 
Q 1019 -91 701 211 
Q 384 513 384 1019 
Q 384 1609 779 1909 
Q 1175 2209 1959 2209 
L 2766 2209 
L 2766 2266 
Q 2766 2663 2505 2880 
Q 2244 3097 1772 3097 
Q 1472 3097 1187 3025 
Q 903 2953 641 2809 
L 641 3341 
Q 956 3463 1253 3523 
Q 1550 3584 1831 3584 
Q 2591 3584 2966 3190 
Q 3341 2797 3341 1997 
z
" transform="scale(0.015625)"/>
       <path id="DejaVuSans-79" d="M 2059 -325 
Q 1816 -950 1584 -1140 
Q 1353 -1331 966 -1331 
L 506 -1331 
L 506 -850 
L 844 -850 
Q 1081 -850 1212 -737 
Q 1344 -625 1503 -206 
L 1606 56 
L 191 3500 
L 800 3500 
L 1894 763 
L 2988 3500 
L 3597 3500 
L 2059 -325 
z
" transform="scale(0.015625)"/>
      </defs>
      <use xlink:href="#DejaVuSans-41"/>
      <use xlink:href="#DejaVuSans-63" x="66.658203"/>
      <use xlink:href="#DejaVuSans-63" x="121.638672"/>
      <use xlink:href="#DejaVuSans-75" x="176.619141"/>
      <use xlink:href="#DejaVuSans-72" x="239.998047"/>
      <use xlink:href="#DejaVuSans-61" x="281.111328"/>
      <use xlink:href="#DejaVuSans-63" x="342.390625"/>
      <use xlink:href="#DejaVuSans-79" x="397.371094"/>
     </g>
    </g>
   </g>
   <g id="line2d_17">
    <path d="M 115.363636 55.554545 
L 119.190213 55.554545 
L 119.30617 72.365008 
L 123.055443 72.365008 
L 123.1714 86.642371 
L 126.920673 86.642371 
L 127.036629 77.200876 
L 130.785902 77.200876 
L 130.901858 82.727601 
L 134.651132 82.727601 
L 134.767088 100.228921 
L 138.516362 100.228921 
L 138.632318 112.4338 
L 142.38159 112.4338 
L 142.497546 147.206153 
L 146.24682 147.206153 
L 146.362776 149.739208 
L 150.11205 149.739208 
L 150.228006 177.603165 
L 153.97728 177.603165 
L 154.093234 197.407297 
L 157.84251 197.407297 
L 157.958464 213.526902 
L 161.707736 213.526902 
L 161.823694 219.283913 
L 165.572966 219.283913 
L 165.688924 237.47609 
L 169.438196 237.47609 
L 169.554155 245.305629 
L 173.303426 245.305629 
L 173.41938 251.523167 
L 177.168656 251.523167 
L 177.28461 255.898508 
L 181.033886 255.898508 
L 181.14984 267.873102 
L 184.899116 267.873102 
L 185.01507 275.932926 
L 188.764342 275.932926 
L 188.880301 273.630113 
L 192.629576 273.630113 
L 192.745526 279.387124 
L 196.494802 279.387124 
L 196.610761 284.453278 
L 200.360028 284.453278 
L 200.475986 278.696267 
L 204.225262 278.696267 
L 204.341221 275.472355 
L 208.090488 275.472355 
L 208.206447 286.525806 
L 211.955722 286.525806 
L 212.071681 289.28919 
L 215.820948 289.28919 
L 215.936907 279.387124 
L 219.686182 279.387124 
L 219.802132 292.513103 
L 223.551408 292.513103 
L 223.667367 280.538509 
L 227.416634 280.538509 
L 227.532593 299.191257 
L 231.281868 299.191257 
L 231.397827 292.282817 
L 235.147094 292.282817 
L 235.263053 289.519476 
L 239.012328 289.519476 
L 239.128287 288.598333 
L 242.877554 288.598333 
L 242.993513 294.355344 
L 246.742788 294.355344 
L 246.858739 290.670861 
L 250.608014 290.670861 
L 250.723973 294.815916 
L 254.47324 294.815916 
L 254.589199 302.645455 
L 258.338474 302.645455 
L 258.454433 298.270114 
L 262.2037 298.270114 
L 262.319659 297.118729 
L 266.068926 297.118729 
L 266.184885 293.664487 
L 269.934169 293.664487 
L 270.05011 294.125059 
L 273.799395 294.125059 
L 273.915353 299.191257 
L 277.66462 299.191257 
L 277.780579 289.519476 
L 281.529846 289.519476 
L 281.645805 299.191257 
L 289.260315 299.191257 
L 289.376274 286.065234 
L 293.125541 286.065234 
L 293.241499 291.592004 
L 296.990766 291.592004 
L 297.106725 292.973674 
L 300.855992 292.973674 
L 300.971951 288.137762 
L 304.721218 288.137762 
L 304.837177 278.465981 
L 308.586461 278.465981 
L 308.70242 290.440575 
L 312.451687 290.440575 
L 312.567645 286.29552 
L 316.316912 286.29552 
L 316.432871 289.980004 
L 320.182138 289.980004 
L 320.298097 285.374421 
L 324.047381 285.374421 
L 324.163323 293.20396 
L 327.912607 293.20396 
L 328.028566 280.99908 
L 331.777833 280.99908 
L 331.893791 294.58563 
L 335.643058 294.58563 
L 335.759017 291.361718 
L 339.508284 291.361718 
L 339.624243 288.368048 
L 343.373527 288.368048 
L 343.489486 285.374421 
L 347.238753 285.374421 
L 347.354712 281.229366 
L 351.103979 281.229366 
L 351.219937 282.841322 
L 354.969204 282.841322 
L 355.085163 290.670861 
L 358.83443 290.670861 
L 358.950389 285.834992 
L 362.699673 285.834992 
L 362.815632 288.828619 
L 366.564899 288.828619 
L 366.680858 281.229366 
L 370.430125 281.229366 
L 370.546083 282.150465 
L 374.29535 282.150465 
L 374.411309 285.834992 
L 378.160593 285.834992 
L 378.276535 284.453278 
L 382.025819 284.453278 
L 382.141778 286.525806 
L 385.891045 286.525806 
L 386.007004 276.623739 
L 389.756271 276.623739 
L 389.872229 285.604707 
L 393.621496 285.604707 
L 393.737455 279.847696 
L 397.486739 279.847696 
L 397.602681 285.144135 
L 401.351965 285.144135 
L 401.467924 287.216663 
L 405.217191 287.216663 
L 405.33315 280.308223 
L 409.082434 280.308223 
L 409.198375 289.519476 
L 412.94766 289.519476 
L 413.063601 280.308223 
L 416.812885 280.308223 
L 416.928827 281.920223 
L 420.678111 281.920223 
L 420.794053 280.077981 
L 424.543337 280.077981 
L 424.659278 278.465981 
L 428.408563 278.465981 
L 428.524539 286.065234 
L 432.273788 286.065234 
L 432.389764 285.604707 
L 436.139014 285.604707 
L 436.25499 279.847696 
L 440.00424 279.847696 
L 440.120216 278.005454 
L 443.8695 278.005454 
L 443.985442 287.216663 
L 447.734726 287.216663 
L 447.850667 287.446949 
L 451.599952 287.446949 
L 451.715893 284.91385 
L 455.465177 284.91385 
L 455.581119 272.478684 
L 459.330403 272.478684 
L 459.446345 277.314597 
L 463.195629 277.314597 
L 463.311605 283.762465 
L 467.060855 283.762465 
L 467.176831 285.374421 
L 470.92608 285.374421 
L 471.042056 279.61741 
L 474.791306 279.61741 
L 474.907282 280.538509 
L 478.656566 280.538509 
L 478.772508 279.387124 
L 482.521792 279.387124 
L 482.637734 281.920223 
L 486.387018 281.920223 
L 486.502959 284.683564 
L 490.252244 284.683564 
L 490.368185 292.052531 
L 494.117469 292.052531 
L 494.233411 279.61741 
L 497.982695 279.61741 
L 498.098671 289.749718 
L 501.847921 289.749718 
L 501.963897 277.084311 
L 505.713147 277.084311 
L 505.829123 284.453278 
L 509.578372 284.453278 
L 509.694348 278.235696 
L 513.443633 278.235696 
L 513.559574 289.28919 
L 517.308858 289.28919 
L 517.4248 283.992707 
L 521.174084 283.992707 
L 521.290026 288.828619 
L 525.03931 288.828619 
L 525.155251 292.973674 
L 528.904536 292.973674 
L 529.020477 280.768795 
L 532.769761 280.768795 
L 532.885703 285.834992 
L 536.634987 285.834992 
L 536.750963 283.762465 
L 540.500213 283.762465 
L 540.616189 277.544882 
L 544.365439 277.544882 
L 544.481415 285.834992 
L 552.095925 285.834992 
L 552.211866 280.768795 
L 555.96115 280.768795 
L 556.077092 280.538509 
L 563.691602 280.538509 
L 563.807543 282.380751 
L 567.556828 282.380751 
L 567.672769 274.090684 
L 571.422053 274.090684 
L 571.53803 286.986377 
L 575.287279 286.986377 
L 575.403255 272.478684 
L 579.152505 272.478684 
L 579.268481 288.598333 
L 583.017731 288.598333 
L 583.133707 279.156838 
L 586.882991 279.156838 
L 586.998932 272.018157 
L 590.748217 272.018157 
L 590.864158 277.314597 
L 594.613442 277.314597 
L 594.729384 280.768795 
L 598.478668 280.768795 
L 598.59461 280.99908 
L 602.343894 280.99908 
L 602.459835 283.992707 
L 606.20912 283.992707 
L 606.325096 283.301893 
L 610.074345 283.301893 
L 610.190322 274.32097 
L 613.939571 274.32097 
L 614.055547 272.478684 
L 621.670023 272.478684 
L 621.785999 271.787871 
L 622.636364 271.787871 
L 622.636364 271.787871 
" clip-path="url(#pa647d3dfdc)" style="fill: none; stroke: #1f77b4; stroke-opacity: 0.8; stroke-width: 1.5; stroke-linecap: square"/>
   </g>
   <g id="line2d_18">
    <path d="M 115.363636 121.184438 
L 119.190213 121.184438 
L 119.30617 73.516392 
L 123.055443 73.516392 
L 123.1714 79.503689 
L 126.920673 79.503689 
L 127.036629 68.219952 
L 130.785902 68.219952 
L 130.901858 72.825579 
L 134.651132 72.825579 
L 134.767088 84.339601 
L 138.516362 84.339601 
L 138.632318 90.787426 
L 142.38159 90.787426 
L 142.497546 127.862592 
L 146.24682 127.862592 
L 146.362776 128.553405 
L 150.11205 128.553405 
L 150.228006 149.739208 
L 153.97728 149.739208 
L 154.093234 158.489889 
L 157.84251 158.489889 
L 157.958464 183.590462 
L 161.707736 183.590462 
L 161.823694 190.038286 
L 165.572966 190.038286 
L 165.688924 212.145232 
L 169.438196 212.145232 
L 169.554155 217.902243 
L 173.303426 217.902243 
L 173.41938 230.337364 
L 177.168656 230.337364 
L 177.28461 234.482419 
L 181.033886 234.482419 
L 181.14984 237.47609 
L 184.899116 237.47609 
L 185.01507 242.081672 
L 188.764342 242.081672 
L 188.880301 252.214024 
L 192.629576 252.214024 
L 192.745526 245.996442 
L 196.494802 245.996442 
L 196.610761 248.990112 
L 200.360028 248.990112 
L 200.475986 246.687299 
L 204.225262 246.687299 
L 204.341221 247.378156 
L 208.090488 247.378156 
L 208.206447 254.516838 
L 211.955722 254.516838 
L 212.071681 258.892178 
L 215.820948 258.892178 
L 215.936907 244.845057 
L 219.686182 244.845057 
L 219.802132 256.128794 
L 223.551408 256.128794 
L 223.667367 257.280178 
L 227.416634 257.280178 
L 227.532593 268.563959 
L 231.281868 268.563959 
L 231.397827 264.188618 
L 235.147094 264.188618 
L 235.263053 267.873102 
L 239.012328 267.873102 
L 239.128287 259.12242 
L 242.877554 259.12242 
L 242.993513 252.214024 
L 246.742788 252.214024 
L 246.858739 267.182245 
L 250.608014 267.182245 
L 250.723973 259.12242 
L 254.47324 259.12242 
L 254.589199 270.406201 
L 258.338474 270.406201 
L 258.454433 260.273849 
L 262.2037 260.273849 
L 262.319659 265.340003 
L 266.068926 265.340003 
L 266.184885 256.819651 
L 273.799395 256.819651 
L 273.915353 277.775168 
L 277.66462 277.775168 
L 277.780579 260.504135 
L 281.529846 260.504135 
L 281.645805 271.557585 
L 285.395072 271.557585 
L 285.511031 270.636443 
L 289.260315 270.636443 
L 289.376274 265.109717 
L 293.125541 265.109717 
L 293.241499 272.248443 
L 296.990766 272.248443 
L 297.106725 259.813277 
L 300.855992 259.813277 
L 300.971951 264.418904 
L 304.721218 264.418904 
L 304.837177 261.425233 
L 308.586461 261.425233 
L 308.70242 260.273849 
L 312.451687 260.273849 
L 312.567645 261.425233 
L 316.316912 261.425233 
L 316.432871 260.043563 
L 320.182138 260.043563 
L 320.298097 266.03086 
L 324.047381 266.03086 
L 324.163323 265.570289 
L 327.912607 265.570289 
L 328.028566 269.485058 
L 331.777833 269.485058 
L 331.893791 267.182245 
L 335.643058 267.182245 
L 335.759017 268.333673 
L 339.508284 268.333673 
L 339.624243 269.945629 
L 343.373527 269.945629 
L 343.489486 263.497761 
L 347.238753 263.497761 
L 347.354712 263.267475 
L 351.103979 263.267475 
L 351.219937 262.806948 
L 354.969204 262.806948 
L 355.085163 266.721673 
L 358.83443 266.721673 
L 358.950389 273.399827 
L 362.699673 273.399827 
L 362.815632 269.485058 
L 366.564899 269.485058 
L 366.680858 267.41253 
L 370.430125 267.41253 
L 370.546083 265.340003 
L 374.29535 265.340003 
L 374.411309 256.819651 
L 378.160593 256.819651 
L 378.276535 264.64919 
L 382.025819 264.64919 
L 382.141778 263.958332 
L 385.891045 263.958332 
L 386.007004 260.504135 
L 389.756271 260.504135 
L 389.872229 270.866728 
L 393.621496 270.866728 
L 393.737455 258.892178 
L 397.486739 258.892178 
L 397.602681 252.44431 
L 401.351965 252.44431 
L 401.467924 267.873102 
L 405.217191 267.873102 
L 405.33315 265.109717 
L 409.082434 265.109717 
L 409.198375 266.491431 
L 412.94766 266.491431 
L 413.063601 266.261146 
L 416.812885 266.261146 
L 416.928827 273.169542 
L 420.678111 273.169542 
L 420.794053 267.182245 
L 424.543337 267.182245 
L 424.659278 263.728047 
L 428.408563 263.728047 
L 428.524539 268.794201 
L 432.273788 268.794201 
L 432.389764 267.41253 
L 436.139014 267.41253 
L 436.25499 270.406201 
L 440.00424 270.406201 
L 440.120216 265.109717 
L 443.8695 265.109717 
L 443.985442 268.333673 
L 447.734726 268.333673 
L 447.850667 266.721673 
L 451.599952 266.721673 
L 451.715893 260.504135 
L 455.465177 260.504135 
L 455.581119 261.425233 
L 459.330403 261.425233 
L 459.446345 269.024486 
L 463.195629 269.024486 
L 463.311605 268.563959 
L 467.060855 268.563959 
L 467.176831 269.485058 
L 470.92608 269.485058 
L 471.042056 259.12242 
L 474.791306 259.12242 
L 474.907282 269.485058 
L 478.656566 269.485058 
L 478.772508 265.800574 
L 482.521792 265.800574 
L 482.637734 266.261146 
L 486.387018 266.261146 
L 486.502959 262.576662 
L 490.252244 262.576662 
L 490.368185 266.951959 
L 494.117469 266.951959 
L 494.233411 259.12242 
L 497.982695 259.12242 
L 498.098671 276.623739 
L 501.847921 276.623739 
L 501.963897 264.64919 
L 505.713147 264.64919 
L 505.829123 261.655519 
L 509.578372 261.655519 
L 509.694348 265.109717 
L 513.443633 265.109717 
L 513.559574 259.582992 
L 517.308858 259.582992 
L 517.4248 267.41253 
L 521.174084 267.41253 
L 521.290026 269.485058 
L 525.03931 269.485058 
L 525.155251 267.642816 
L 528.904536 267.642816 
L 529.020477 260.964662 
L 532.769761 260.964662 
L 532.885703 268.103387 
L 536.634987 268.103387 
L 536.750963 277.775168 
L 540.500213 277.775168 
L 540.616189 259.12242 
L 544.365439 259.12242 
L 544.481415 267.873102 
L 548.230664 267.873102 
L 548.34664 261.425233 
L 552.095925 261.425233 
L 552.211866 257.049937 
L 555.96115 257.049937 
L 556.077092 262.346376 
L 559.826376 262.346376 
L 559.942318 271.3273 
L 563.691602 271.3273 
L 563.807543 258.431607 
L 567.556828 258.431607 
L 567.672769 264.418904 
L 571.422053 264.418904 
L 571.53803 264.188618 
L 575.287279 264.188618 
L 575.403255 251.983739 
L 579.152505 251.983739 
L 579.268481 266.491431 
L 583.017731 266.491431 
L 583.133707 262.116091 
L 586.882991 262.116091 
L 586.998932 256.359079 
L 590.748217 256.359079 
L 590.864158 256.819651 
L 594.613442 256.819651 
L 594.729384 273.860399 
L 598.478668 273.860399 
L 598.59461 262.116091 
L 602.343894 262.116091 
L 602.459835 264.879431 
L 606.20912 264.879431 
L 606.325096 262.116091 
L 610.074345 262.116091 
L 610.190322 255.898508 
L 613.939571 255.898508 
L 614.055547 261.425233 
L 617.804797 261.425233 
L 617.920773 261.655519 
L 621.670023 261.655519 
L 621.785999 251.523167 
L 622.636364 251.523167 
L 622.636364 251.523167 
" clip-path="url(#pa647d3dfdc)" style="fill: none; stroke: #ff7f0e; stroke-opacity: 0.8; stroke-width: 1.5; stroke-linecap: square"/>
   </g>
   <g id="patch_3">
    <path d="M 90 315 
L 90 43.2 
" style="fill: none; stroke: #000000; stroke-width: 0.8; stroke-linejoin: miter; stroke-linecap: square"/>
   </g>
   <g id="patch_4">
    <path d="M 648 315 
L 648 43.2 
" style="fill: none; stroke: #000000; stroke-width: 0.8; stroke-linejoin: miter; stroke-linecap: square"/>
   </g>
   <g id="patch_5">
    <path d="M 90 315 
L 648 315 
" style="fill: none; stroke: #000000; stroke-width: 0.8; stroke-linejoin: miter; stroke-linecap: square"/>
   </g>
   <g id="patch_6">
    <path d="M 90 43.2 
L 648 43.2 
" style="fill: none; stroke: #000000; stroke-width: 0.8; stroke-linejoin: miter; stroke-linecap: square"/>
   </g>
   <g id="text_19">
    <!-- Discriminator Accuracy on Real and Fake Samples During Training -->
    <g transform="translate(39.5625 37.2)scale(0.2 -0.2)">
     <defs>
      <path id="DejaVuSans-44" d="M 1259 4147 
L 1259 519 
L 2022 519 
Q 2988 519 3436 956 
Q 3884 1394 3884 2338 
Q 3884 3275 3436 3711 
Q 2988 4147 2022 4147 
L 1259 4147 
z
M 628 4666 
L 1925 4666 
Q 3281 4666 3915 4102 
Q 4550 3538 4550 2338 
Q 4550 1131 3912 565 
Q 3275 0 1925 0 
L 628 0 
L 628 4666 
z
" transform="scale(0.015625)"/>
      <path id="DejaVuSans-69" d="M 603 3500 
L 1178 3500 
L 1178 0 
L 603 0 
L 603 3500 
z
M 603 4863 
L 1178 4863 
L 1178 4134 
L 603 4134 
L 603 4863 
z
" transform="scale(0.015625)"/>
      <path id="DejaVuSans-6d" d="M 3328 2828 
Q 3544 3216 3844 3400 
Q 4144 3584 4550 3584 
Q 5097 3584 5394 3201 
Q 5691 2819 5691 2113 
L 5691 0 
L 5113 0 
L 5113 2094 
Q 5113 2597 4934 2840 
Q 4756 3084 4391 3084 
Q 3944 3084 3684 2787 
Q 3425 2491 3425 1978 
L 3425 0 
L 2847 0 
L 2847 2094 
Q 2847 2600 2669 2842 
Q 2491 3084 2119 3084 
Q 1678 3084 1418 2786 
Q 1159 2488 1159 1978 
L 1159 0 
L 581 0 
L 581 3500 
L 1159 3500 
L 1159 2956 
Q 1356 3278 1631 3431 
Q 1906 3584 2284 3584 
Q 2666 3584 2933 3390 
Q 3200 3197 3328 2828 
z
" transform="scale(0.015625)"/>
      <path id="DejaVuSans-6e" d="M 3513 2113 
L 3513 0 
L 2938 0 
L 2938 2094 
Q 2938 2591 2744 2837 
Q 2550 3084 2163 3084 
Q 1697 3084 1428 2787 
Q 1159 2491 1159 1978 
L 1159 0 
L 581 0 
L 581 3500 
L 1159 3500 
L 1159 2956 
Q 1366 3272 1645 3428 
Q 1925 3584 2291 3584 
Q 2894 3584 3203 3211 
Q 3513 2838 3513 2113 
z
" transform="scale(0.015625)"/>
      <path id="DejaVuSans-74" d="M 1172 4494 
L 1172 3500 
L 2356 3500 
L 2356 3053 
L 1172 3053 
L 1172 1153 
Q 1172 725 1289 603 
Q 1406 481 1766 481 
L 2356 481 
L 2356 0 
L 1766 0 
Q 1100 0 847 248 
Q 594 497 594 1153 
L 594 3053 
L 172 3053 
L 172 3500 
L 594 3500 
L 594 4494 
L 1172 4494 
z
" transform="scale(0.015625)"/>
      <path id="DejaVuSans-20" transform="scale(0.015625)"/>
      <path id="DejaVuSans-52" d="M 2841 2188 
Q 3044 2119 3236 1894 
Q 3428 1669 3622 1275 
L 4263 0 
L 3584 0 
L 2988 1197 
Q 2756 1666 2539 1819 
Q 2322 1972 1947 1972 
L 1259 1972 
L 1259 0 
L 628 0 
L 628 4666 
L 2053 4666 
Q 2853 4666 3247 4331 
Q 3641 3997 3641 3322 
Q 3641 2881 3436 2590 
Q 3231 2300 2841 2188 
z
M 1259 4147 
L 1259 2491 
L 2053 2491 
Q 2509 2491 2742 2702 
Q 2975 2913 2975 3322 
Q 2975 3731 2742 3939 
Q 2509 4147 2053 4147 
L 1259 4147 
z
" transform="scale(0.015625)"/>
      <path id="DejaVuSans-65" d="M 3597 1894 
L 3597 1613 
L 953 1613 
Q 991 1019 1311 708 
Q 1631 397 2203 397 
Q 2534 397 2845 478 
Q 3156 559 3463 722 
L 3463 178 
Q 3153 47 2828 -22 
Q 2503 -91 2169 -91 
Q 1331 -91 842 396 
Q 353 884 353 1716 
Q 353 2575 817 3079 
Q 1281 3584 2069 3584 
Q 2775 3584 3186 3129 
Q 3597 2675 3597 1894 
z
M 3022 2063 
Q 3016 2534 2758 2815 
Q 2500 3097 2075 3097 
Q 1594 3097 1305 2825 
Q 1016 2553 972 2059 
L 3022 2063 
z
" transform="scale(0.015625)"/>
      <path id="DejaVuSans-6c" d="M 603 4863 
L 1178 4863 
L 1178 0 
L 603 0 
L 603 4863 
z
" transform="scale(0.015625)"/>
      <path id="DejaVuSans-64" d="M 2906 2969 
L 2906 4863 
L 3481 4863 
L 3481 0 
L 2906 0 
L 2906 525 
Q 2725 213 2448 61 
Q 2172 -91 1784 -91 
Q 1150 -91 751 415 
Q 353 922 353 1747 
Q 353 2572 751 3078 
Q 1150 3584 1784 3584 
Q 2172 3584 2448 3432 
Q 2725 3281 2906 2969 
z
M 947 1747 
Q 947 1113 1208 752 
Q 1469 391 1925 391 
Q 2381 391 2643 752 
Q 2906 1113 2906 1747 
Q 2906 2381 2643 2742 
Q 2381 3103 1925 3103 
Q 1469 3103 1208 2742 
Q 947 2381 947 1747 
z
" transform="scale(0.015625)"/>
      <path id="DejaVuSans-46" d="M 628 4666 
L 3309 4666 
L 3309 4134 
L 1259 4134 
L 1259 2759 
L 3109 2759 
L 3109 2228 
L 1259 2228 
L 1259 0 
L 628 0 
L 628 4666 
z
" transform="scale(0.015625)"/>
      <path id="DejaVuSans-6b" d="M 581 4863 
L 1159 4863 
L 1159 1991 
L 2875 3500 
L 3609 3500 
L 1753 1863 
L 3688 0 
L 2938 0 
L 1159 1709 
L 1159 0 
L 581 0 
L 581 4863 
z
" transform="scale(0.015625)"/>
      <path id="DejaVuSans-53" d="M 3425 4513 
L 3425 3897 
Q 3066 4069 2747 4153 
Q 2428 4238 2131 4238 
Q 1616 4238 1336 4038 
Q 1056 3838 1056 3469 
Q 1056 3159 1242 3001 
Q 1428 2844 1947 2747 
L 2328 2669 
Q 3034 2534 3370 2195 
Q 3706 1856 3706 1288 
Q 3706 609 3251 259 
Q 2797 -91 1919 -91 
Q 1588 -91 1214 -16 
Q 841 59 441 206 
L 441 856 
Q 825 641 1194 531 
Q 1563 422 1919 422 
Q 2459 422 2753 634 
Q 3047 847 3047 1241 
Q 3047 1584 2836 1778 
Q 2625 1972 2144 2069 
L 1759 2144 
Q 1053 2284 737 2584 
Q 422 2884 422 3419 
Q 422 4038 858 4394 
Q 1294 4750 2059 4750 
Q 2388 4750 2728 4690 
Q 3069 4631 3425 4513 
z
" transform="scale(0.015625)"/>
      <path id="DejaVuSans-67" d="M 2906 1791 
Q 2906 2416 2648 2759 
Q 2391 3103 1925 3103 
Q 1463 3103 1205 2759 
Q 947 2416 947 1791 
Q 947 1169 1205 825 
Q 1463 481 1925 481 
Q 2391 481 2648 825 
Q 2906 1169 2906 1791 
z
M 3481 434 
Q 3481 -459 3084 -895 
Q 2688 -1331 1869 -1331 
Q 1566 -1331 1297 -1286 
Q 1028 -1241 775 -1147 
L 775 -588 
Q 1028 -725 1275 -790 
Q 1522 -856 1778 -856 
Q 2344 -856 2625 -561 
Q 2906 -266 2906 331 
L 2906 616 
Q 2728 306 2450 153 
Q 2172 0 1784 0 
Q 1141 0 747 490 
Q 353 981 353 1791 
Q 353 2603 747 3093 
Q 1141 3584 1784 3584 
Q 2172 3584 2450 3431 
Q 2728 3278 2906 2969 
L 2906 3500 
L 3481 3500 
L 3481 434 
z
" transform="scale(0.015625)"/>
      <path id="DejaVuSans-54" d="M -19 4666 
L 3928 4666 
L 3928 4134 
L 2272 4134 
L 2272 0 
L 1638 0 
L 1638 4134 
L -19 4134 
L -19 4666 
z
" transform="scale(0.015625)"/>
     </defs>
     <use xlink:href="#DejaVuSans-44"/>
     <use xlink:href="#DejaVuSans-69" x="77.001953"/>
     <use xlink:href="#DejaVuSans-73" x="104.785156"/>
     <use xlink:href="#DejaVuSans-63" x="156.884766"/>
     <use xlink:href="#DejaVuSans-72" x="211.865234"/>
     <use xlink:href="#DejaVuSans-69" x="252.978516"/>
     <use xlink:href="#DejaVuSans-6d" x="280.761719"/>
     <use xlink:href="#DejaVuSans-69" x="378.173828"/>
     <use xlink:href="#DejaVuSans-6e" x="405.957031"/>
     <use xlink:href="#DejaVuSans-61" x="469.335938"/>
     <use xlink:href="#DejaVuSans-74" x="530.615234"/>
     <use xlink:href="#DejaVuSans-6f" x="569.824219"/>
     <use xlink:href="#DejaVuSans-72" x="631.005859"/>
     <use xlink:href="#DejaVuSans-20" x="672.119141"/>
     <use xlink:href="#DejaVuSans-41" x="703.90625"/>
     <use xlink:href="#DejaVuSans-63" x="770.564453"/>
     <use xlink:href="#DejaVuSans-63" x="825.544922"/>
     <use xlink:href="#DejaVuSans-75" x="880.525391"/>
     <use xlink:href="#DejaVuSans-72" x="943.904297"/>
     <use xlink:href="#DejaVuSans-61" x="985.017578"/>
     <use xlink:href="#DejaVuSans-63" x="1046.296875"/>
     <use xlink:href="#DejaVuSans-79" x="1101.277344"/>
     <use xlink:href="#DejaVuSans-20" x="1160.457031"/>
     <use xlink:href="#DejaVuSans-6f" x="1192.244141"/>
     <use xlink:href="#DejaVuSans-6e" x="1253.425781"/>
     <use xlink:href="#DejaVuSans-20" x="1316.804688"/>
     <use xlink:href="#DejaVuSans-52" x="1348.591797"/>
     <use xlink:href="#DejaVuSans-65" x="1413.574219"/>
     <use xlink:href="#DejaVuSans-61" x="1475.097656"/>
     <use xlink:href="#DejaVuSans-6c" x="1536.376953"/>
     <use xlink:href="#DejaVuSans-20" x="1564.160156"/>
     <use xlink:href="#DejaVuSans-61" x="1595.947266"/>
     <use xlink:href="#DejaVuSans-6e" x="1657.226562"/>
     <use xlink:href="#DejaVuSans-64" x="1720.605469"/>
     <use xlink:href="#DejaVuSans-20" x="1784.082031"/>
     <use xlink:href="#DejaVuSans-46" x="1815.869141"/>
     <use xlink:href="#DejaVuSans-61" x="1864.263672"/>
     <use xlink:href="#DejaVuSans-6b" x="1925.542969"/>
     <use xlink:href="#DejaVuSans-65" x="1979.828125"/>
     <use xlink:href="#DejaVuSans-20" x="2041.351562"/>
     <use xlink:href="#DejaVuSans-53" x="2073.138672"/>
     <use xlink:href="#DejaVuSans-61" x="2136.615234"/>
     <use xlink:href="#DejaVuSans-6d" x="2197.894531"/>
     <use xlink:href="#DejaVuSans-70" x="2295.306641"/>
     <use xlink:href="#DejaVuSans-6c" x="2358.783203"/>
     <use xlink:href="#DejaVuSans-65" x="2386.566406"/>
     <use xlink:href="#DejaVuSans-73" x="2448.089844"/>
     <use xlink:href="#DejaVuSans-20" x="2500.189453"/>
     <use xlink:href="#DejaVuSans-44" x="2531.976562"/>
     <use xlink:href="#DejaVuSans-75" x="2608.978516"/>
     <use xlink:href="#DejaVuSans-72" x="2672.357422"/>
     <use xlink:href="#DejaVuSans-69" x="2713.470703"/>
     <use xlink:href="#DejaVuSans-6e" x="2741.253906"/>
     <use xlink:href="#DejaVuSans-67" x="2804.632812"/>
     <use xlink:href="#DejaVuSans-20" x="2868.109375"/>
     <use xlink:href="#DejaVuSans-54" x="2899.896484"/>
     <use xlink:href="#DejaVuSans-72" x="2946.230469"/>
     <use xlink:href="#DejaVuSans-61" x="2987.34375"/>
     <use xlink:href="#DejaVuSans-69" x="3048.623047"/>
     <use xlink:href="#DejaVuSans-6e" x="3076.40625"/>
     <use xlink:href="#DejaVuSans-69" x="3139.785156"/>
     <use xlink:href="#DejaVuSans-6e" x="3167.568359"/>
     <use xlink:href="#DejaVuSans-67" x="3230.947266"/>
    </g>
   </g>
   <g id="legend_1">
    <g id="patch_7">
     <path d="M 541.70625 80.55625 
L 641 80.55625 
Q 643 80.55625 643 78.55625 
L 643 50.2 
Q 643 48.2 641 48.2 
L 541.70625 48.2 
Q 539.70625 48.2 539.70625 50.2 
L 539.70625 78.55625 
Q 539.70625 80.55625 541.70625 80.55625 
z
" style="fill: #ffffff; opacity: 0.8; stroke: #cccccc; stroke-linejoin: miter"/>
    </g>
    <g id="line2d_19">
     <path d="M 543.70625 56.298437 
L 553.70625 56.298437 
L 563.70625 56.298437 
" style="fill: none; stroke: #1f77b4; stroke-opacity: 0.8; stroke-width: 1.5; stroke-linecap: square"/>
    </g>
    <g id="text_20">
     <!-- Real samples -->
     <g transform="translate(571.70625 59.798437)scale(0.1 -0.1)">
      <use xlink:href="#DejaVuSans-52"/>
      <use xlink:href="#DejaVuSans-65" x="64.982422"/>
      <use xlink:href="#DejaVuSans-61" x="126.505859"/>
      <use xlink:href="#DejaVuSans-6c" x="187.785156"/>
      <use xlink:href="#DejaVuSans-20" x="215.568359"/>
      <use xlink:href="#DejaVuSans-73" x="247.355469"/>
      <use xlink:href="#DejaVuSans-61" x="299.455078"/>
      <use xlink:href="#DejaVuSans-6d" x="360.734375"/>
      <use xlink:href="#DejaVuSans-70" x="458.146484"/>
      <use xlink:href="#DejaVuSans-6c" x="521.623047"/>
      <use xlink:href="#DejaVuSans-65" x="549.40625"/>
      <use xlink:href="#DejaVuSans-73" x="610.929688"/>
     </g>
    </g>
    <g id="line2d_20">
     <path d="M 543.70625 70.976562 
L 553.70625 70.976562 
L 563.70625 70.976562 
" style="fill: none; stroke: #ff7f0e; stroke-opacity: 0.8; stroke-width: 1.5; stroke-linecap: square"/>
    </g>
    <g id="text_21">
     <!-- Fake samples -->
     <g transform="translate(571.70625 74.476562)scale(0.1 -0.1)">
      <use xlink:href="#DejaVuSans-46"/>
      <use xlink:href="#DejaVuSans-61" x="48.394531"/>
      <use xlink:href="#DejaVuSans-6b" x="109.673828"/>
      <use xlink:href="#DejaVuSans-65" x="163.958984"/>
      <use xlink:href="#DejaVuSans-20" x="225.482422"/>
      <use xlink:href="#DejaVuSans-73" x="257.269531"/>
      <use xlink:href="#DejaVuSans-61" x="309.369141"/>
      <use xlink:href="#DejaVuSans-6d" x="370.648438"/>
      <use xlink:href="#DejaVuSans-70" x="468.060547"/>
      <use xlink:href="#DejaVuSans-6c" x="531.537109"/>
      <use xlink:href="#DejaVuSans-65" x="559.320312"/>
      <use xlink:href="#DejaVuSans-73" x="620.84375"/>
     </g>
    </g>
   </g>
  </g>
 </g>
 <defs>
  <clipPath id="pa647d3dfdc">
   <rect x="90" y="43.2" width="558" height="271.8"/>
  </clipPath>
 </defs>
</svg>
