<?xml version="1.0" encoding="utf-8" standalone="no"?>
<!DOCTYPE svg PUBLIC "-//W3C//DTD SVG 1.1//EN"
  "http://www.w3.org/Graphics/SVG/1.1/DTD/svg11.dtd">
<svg xmlns:xlink="http://www.w3.org/1999/xlink" width="720pt" height="360pt" viewBox="0 0 720 360" xmlns="http://www.w3.org/2000/svg" version="1.1">
 <metadata>
  <rdf:RDF xmlns:dc="http://purl.org/dc/elements/1.1/" xmlns:cc="http://creativecommons.org/ns#" xmlns:rdf="http://www.w3.org/1999/02/22-rdf-syntax-ns#">
   <cc:Work>
    <dc:type rdf:resource="http://purl.org/dc/dcmitype/StillImage"/>
    <dc:date>2022-11-30T10:49:29.886628</dc:date>
    <dc:format>image/svg+xml</dc:format>
    <dc:creator>
     <cc:Agent>
      <dc:title>Matplotlib v3.5.2, https://matplotlib.org/</dc:title>
     </cc:Agent>
    </dc:creator>
   </cc:Work>
  </rdf:RDF>
 </metadata>
 <defs>
  <style type="text/css">*{stroke-linejoin: round; stroke-linecap: butt}</style>
 </defs>
 <g id="figure_1">
  <g id="patch_1">
   <path d="M 0 360 
L 720 360 
L 720 0 
L 0 0 
L 0 360 
z
" style="fill: none"/>
  </g>
  <g id="axes_1">
   <g id="patch_2">
    <path d="M 90 315 
L 648 315 
L 648 43.2 
L 90 43.2 
z
" style="fill: #ffffff"/>
   </g>
   <g id="matplotlib.axis_1">
    <g id="xtick_1">
     <g id="line2d_1">
      <defs>
       <path id="mc70f48f623" d="M 0 0 
L 0 3.5 
" style="stroke: #000000; stroke-width: 0.8"/>
      </defs>
      <g>
       <use xlink:href="#mc70f48f623" x="115.363636" y="315" style="stroke: #000000; stroke-width: 0.8"/>
      </g>
     </g>
     <g id="text_1">
      <!-- 0 -->
      <g transform="translate(112.182386 329.598437)scale(0.1 -0.1)">
       <defs>
        <path id="DejaVuSans-30" d="M 2034 4250 
Q 1547 4250 1301 3770 
Q 1056 3291 1056 2328 
Q 1056 1369 1301 889 
Q 1547 409 2034 409 
Q 2525 409 2770 889 
Q 3016 1369 3016 2328 
Q 3016 3291 2770 3770 
Q 2525 4250 2034 4250 
z
M 2034 4750 
Q 2819 4750 3233 4129 
Q 3647 3509 3647 2328 
Q 3647 1150 3233 529 
Q 2819 -91 2034 -91 
Q 1250 -91 836 529 
Q 422 1150 422 2328 
Q 422 3509 836 4129 
Q 1250 4750 2034 4750 
z
" transform="scale(0.015625)"/>
       </defs>
       <use xlink:href="#DejaVuSans-30"/>
      </g>
     </g>
    </g>
    <g id="xtick_2">
     <g id="line2d_2">
      <g>
       <use xlink:href="#mc70f48f623" x="187.836688" y="315" style="stroke: #000000; stroke-width: 0.8"/>
      </g>
     </g>
     <g id="text_2">
      <!-- 1 -->
      <g transform="translate(184.655438 329.598437)scale(0.1 -0.1)">
       <defs>
        <path id="DejaVuSans-31" d="M 794 531 
L 1825 531 
L 1825 4091 
L 703 3866 
L 703 4441 
L 1819 4666 
L 2450 4666 
L 2450 531 
L 3481 531 
L 3481 0 
L 794 0 
L 794 531 
z
" transform="scale(0.015625)"/>
       </defs>
       <use xlink:href="#DejaVuSans-31"/>
      </g>
     </g>
    </g>
    <g id="xtick_3">
     <g id="line2d_3">
      <g>
       <use xlink:href="#mc70f48f623" x="260.30974" y="315" style="stroke: #000000; stroke-width: 0.8"/>
      </g>
     </g>
     <g id="text_3">
      <!-- 2 -->
      <g transform="translate(257.12849 329.598437)scale(0.1 -0.1)">
       <defs>
        <path id="DejaVuSans-32" d="M 1228 531 
L 3431 531 
L 3431 0 
L 469 0 
L 469 531 
Q 828 903 1448 1529 
Q 2069 2156 2228 2338 
Q 2531 2678 2651 2914 
Q 2772 3150 2772 3378 
Q 2772 3750 2511 3984 
Q 2250 4219 1831 4219 
Q 1534 4219 1204 4116 
Q 875 4013 500 3803 
L 500 4441 
Q 881 4594 1212 4672 
Q 1544 4750 1819 4750 
Q 2544 4750 2975 4387 
Q 3406 4025 3406 3419 
Q 3406 3131 3298 2873 
Q 3191 2616 2906 2266 
Q 2828 2175 2409 1742 
Q 1991 1309 1228 531 
z
" transform="scale(0.015625)"/>
       </defs>
       <use xlink:href="#DejaVuSans-32"/>
      </g>
     </g>
    </g>
    <g id="xtick_4">
     <g id="line2d_4">
      <g>
       <use xlink:href="#mc70f48f623" x="332.782792" y="315" style="stroke: #000000; stroke-width: 0.8"/>
      </g>
     </g>
     <g id="text_4">
      <!-- 3 -->
      <g transform="translate(329.601542 329.598437)scale(0.1 -0.1)">
       <defs>
        <path id="DejaVuSans-33" d="M 2597 2516 
Q 3050 2419 3304 2112 
Q 3559 1806 3559 1356 
Q 3559 666 3084 287 
Q 2609 -91 1734 -91 
Q 1441 -91 1130 -33 
Q 819 25 488 141 
L 488 750 
Q 750 597 1062 519 
Q 1375 441 1716 441 
Q 2309 441 2620 675 
Q 2931 909 2931 1356 
Q 2931 1769 2642 2001 
Q 2353 2234 1838 2234 
L 1294 2234 
L 1294 2753 
L 1863 2753 
Q 2328 2753 2575 2939 
Q 2822 3125 2822 3475 
Q 2822 3834 2567 4026 
Q 2313 4219 1838 4219 
Q 1578 4219 1281 4162 
Q 984 4106 628 3988 
L 628 4550 
Q 988 4650 1302 4700 
Q 1616 4750 1894 4750 
Q 2613 4750 3031 4423 
Q 3450 4097 3450 3541 
Q 3450 3153 3228 2886 
Q 3006 2619 2597 2516 
z
" transform="scale(0.015625)"/>
       </defs>
       <use xlink:href="#DejaVuSans-33"/>
      </g>
     </g>
    </g>
    <g id="xtick_5">
     <g id="line2d_5">
      <g>
       <use xlink:href="#mc70f48f623" x="405.255844" y="315" style="stroke: #000000; stroke-width: 0.8"/>
      </g>
     </g>
     <g id="text_5">
      <!-- 4 -->
      <g transform="translate(402.074594 329.598437)scale(0.1 -0.1)">
       <defs>
        <path id="DejaVuSans-34" d="M 2419 4116 
L 825 1625 
L 2419 1625 
L 2419 4116 
z
M 2253 4666 
L 3047 4666 
L 3047 1625 
L 3713 1625 
L 3713 1100 
L 3047 1100 
L 3047 0 
L 2419 0 
L 2419 1100 
L 313 1100 
L 313 1709 
L 2253 4666 
z
" transform="scale(0.015625)"/>
       </defs>
       <use xlink:href="#DejaVuSans-34"/>
      </g>
     </g>
    </g>
    <g id="xtick_6">
     <g id="line2d_6">
      <g>
       <use xlink:href="#mc70f48f623" x="477.728896" y="315" style="stroke: #000000; stroke-width: 0.8"/>
      </g>
     </g>
     <g id="text_6">
      <!-- 5 -->
      <g transform="translate(474.547646 329.598437)scale(0.1 -0.1)">
       <defs>
        <path id="DejaVuSans-35" d="M 691 4666 
L 3169 4666 
L 3169 4134 
L 1269 4134 
L 1269 2991 
Q 1406 3038 1543 3061 
Q 1681 3084 1819 3084 
Q 2600 3084 3056 2656 
Q 3513 2228 3513 1497 
Q 3513 744 3044 326 
Q 2575 -91 1722 -91 
Q 1428 -91 1123 -41 
Q 819 9 494 109 
L 494 744 
Q 775 591 1075 516 
Q 1375 441 1709 441 
Q 2250 441 2565 725 
Q 2881 1009 2881 1497 
Q 2881 1984 2565 2268 
Q 2250 2553 1709 2553 
Q 1456 2553 1204 2497 
Q 953 2441 691 2322 
L 691 4666 
z
" transform="scale(0.015625)"/>
       </defs>
       <use xlink:href="#DejaVuSans-35"/>
      </g>
     </g>
    </g>
    <g id="xtick_7">
     <g id="line2d_7">
      <g>
       <use xlink:href="#mc70f48f623" x="550.201947" y="315" style="stroke: #000000; stroke-width: 0.8"/>
      </g>
     </g>
     <g id="text_7">
      <!-- 6 -->
      <g transform="translate(547.020697 329.598437)scale(0.1 -0.1)">
       <defs>
        <path id="DejaVuSans-36" d="M 2113 2584 
Q 1688 2584 1439 2293 
Q 1191 2003 1191 1497 
Q 1191 994 1439 701 
Q 1688 409 2113 409 
Q 2538 409 2786 701 
Q 3034 994 3034 1497 
Q 3034 2003 2786 2293 
Q 2538 2584 2113 2584 
z
M 3366 4563 
L 3366 3988 
Q 3128 4100 2886 4159 
Q 2644 4219 2406 4219 
Q 1781 4219 1451 3797 
Q 1122 3375 1075 2522 
Q 1259 2794 1537 2939 
Q 1816 3084 2150 3084 
Q 2853 3084 3261 2657 
Q 3669 2231 3669 1497 
Q 3669 778 3244 343 
Q 2819 -91 2113 -91 
Q 1303 -91 875 529 
Q 447 1150 447 2328 
Q 447 3434 972 4092 
Q 1497 4750 2381 4750 
Q 2619 4750 2861 4703 
Q 3103 4656 3366 4563 
z
" transform="scale(0.015625)"/>
       </defs>
       <use xlink:href="#DejaVuSans-36"/>
      </g>
     </g>
    </g>
    <g id="xtick_8">
     <g id="line2d_8">
      <g>
       <use xlink:href="#mc70f48f623" x="622.674999" y="315" style="stroke: #000000; stroke-width: 0.8"/>
      </g>
     </g>
     <g id="text_8">
      <!-- 7 -->
      <g transform="translate(619.493749 329.598437)scale(0.1 -0.1)">
       <defs>
        <path id="DejaVuSans-37" d="M 525 4666 
L 3525 4666 
L 3525 4397 
L 1831 0 
L 1172 0 
L 2766 4134 
L 525 4134 
L 525 4666 
z
" transform="scale(0.015625)"/>
       </defs>
       <use xlink:href="#DejaVuSans-37"/>
      </g>
     </g>
    </g>
    <g id="text_9">
     <!-- Epochs -->
     <g transform="translate(351.084375 343.276563)scale(0.1 -0.1)">
      <defs>
       <path id="DejaVuSans-45" d="M 628 4666 
L 3578 4666 
L 3578 4134 
L 1259 4134 
L 1259 2753 
L 3481 2753 
L 3481 2222 
L 1259 2222 
L 1259 531 
L 3634 531 
L 3634 0 
L 628 0 
L 628 4666 
z
" transform="scale(0.015625)"/>
       <path id="DejaVuSans-70" d="M 1159 525 
L 1159 -1331 
L 581 -1331 
L 581 3500 
L 1159 3500 
L 1159 2969 
Q 1341 3281 1617 3432 
Q 1894 3584 2278 3584 
Q 2916 3584 3314 3078 
Q 3713 2572 3713 1747 
Q 3713 922 3314 415 
Q 2916 -91 2278 -91 
Q 1894 -91 1617 61 
Q 1341 213 1159 525 
z
M 3116 1747 
Q 3116 2381 2855 2742 
Q 2594 3103 2138 3103 
Q 1681 3103 1420 2742 
Q 1159 2381 1159 1747 
Q 1159 1113 1420 752 
Q 1681 391 2138 391 
Q 2594 391 2855 752 
Q 3116 1113 3116 1747 
z
" transform="scale(0.015625)"/>
       <path id="DejaVuSans-6f" d="M 1959 3097 
Q 1497 3097 1228 2736 
Q 959 2375 959 1747 
Q 959 1119 1226 758 
Q 1494 397 1959 397 
Q 2419 397 2687 759 
Q 2956 1122 2956 1747 
Q 2956 2369 2687 2733 
Q 2419 3097 1959 3097 
z
M 1959 3584 
Q 2709 3584 3137 3096 
Q 3566 2609 3566 1747 
Q 3566 888 3137 398 
Q 2709 -91 1959 -91 
Q 1206 -91 779 398 
Q 353 888 353 1747 
Q 353 2609 779 3096 
Q 1206 3584 1959 3584 
z
" transform="scale(0.015625)"/>
       <path id="DejaVuSans-63" d="M 3122 3366 
L 3122 2828 
Q 2878 2963 2633 3030 
Q 2388 3097 2138 3097 
Q 1578 3097 1268 2742 
Q 959 2388 959 1747 
Q 959 1106 1268 751 
Q 1578 397 2138 397 
Q 2388 397 2633 464 
Q 2878 531 3122 666 
L 3122 134 
Q 2881 22 2623 -34 
Q 2366 -91 2075 -91 
Q 1284 -91 818 406 
Q 353 903 353 1747 
Q 353 2603 823 3093 
Q 1294 3584 2113 3584 
Q 2378 3584 2631 3529 
Q 2884 3475 3122 3366 
z
" transform="scale(0.015625)"/>
       <path id="DejaVuSans-68" d="M 3513 2113 
L 3513 0 
L 2938 0 
L 2938 2094 
Q 2938 2591 2744 2837 
Q 2550 3084 2163 3084 
Q 1697 3084 1428 2787 
Q 1159 2491 1159 1978 
L 1159 0 
L 581 0 
L 581 4863 
L 1159 4863 
L 1159 2956 
Q 1366 3272 1645 3428 
Q 1925 3584 2291 3584 
Q 2894 3584 3203 3211 
Q 3513 2838 3513 2113 
z
" transform="scale(0.015625)"/>
       <path id="DejaVuSans-73" d="M 2834 3397 
L 2834 2853 
Q 2591 2978 2328 3040 
Q 2066 3103 1784 3103 
Q 1356 3103 1142 2972 
Q 928 2841 928 2578 
Q 928 2378 1081 2264 
Q 1234 2150 1697 2047 
L 1894 2003 
Q 2506 1872 2764 1633 
Q 3022 1394 3022 966 
Q 3022 478 2636 193 
Q 2250 -91 1575 -91 
Q 1294 -91 989 -36 
Q 684 19 347 128 
L 347 722 
Q 666 556 975 473 
Q 1284 391 1588 391 
Q 1994 391 2212 530 
Q 2431 669 2431 922 
Q 2431 1156 2273 1281 
Q 2116 1406 1581 1522 
L 1381 1569 
Q 847 1681 609 1914 
Q 372 2147 372 2553 
Q 372 3047 722 3315 
Q 1072 3584 1716 3584 
Q 2034 3584 2315 3537 
Q 2597 3491 2834 3397 
z
" transform="scale(0.015625)"/>
      </defs>
      <use xlink:href="#DejaVuSans-45"/>
      <use xlink:href="#DejaVuSans-70" x="63.183594"/>
      <use xlink:href="#DejaVuSans-6f" x="126.660156"/>
      <use xlink:href="#DejaVuSans-63" x="187.841797"/>
      <use xlink:href="#DejaVuSans-68" x="242.822266"/>
      <use xlink:href="#DejaVuSans-73" x="306.201172"/>
     </g>
    </g>
   </g>
   <g id="matplotlib.axis_2">
    <g id="ytick_1">
     <g id="line2d_9">
      <defs>
       <path id="m9aae70bafc" d="M 0 0 
L -3.5 0 
" style="stroke: #000000; stroke-width: 0.8"/>
      </defs>
      <g>
       <use xlink:href="#m9aae70bafc" x="90" y="311.213538" style="stroke: #000000; stroke-width: 0.8"/>
      </g>
     </g>
     <g id="text_10">
      <!-- 0 -->
      <g transform="translate(76.6375 315.012756)scale(0.1 -0.1)">
       <use xlink:href="#DejaVuSans-30"/>
      </g>
     </g>
    </g>
    <g id="ytick_2">
     <g id="line2d_10">
      <g>
       <use xlink:href="#m9aae70bafc" x="90" y="268.390667" style="stroke: #000000; stroke-width: 0.8"/>
      </g>
     </g>
     <g id="text_11">
      <!-- 1 -->
      <g transform="translate(76.6375 272.189886)scale(0.1 -0.1)">
       <use xlink:href="#DejaVuSans-31"/>
      </g>
     </g>
    </g>
    <g id="ytick_3">
     <g id="line2d_11">
      <g>
       <use xlink:href="#m9aae70bafc" x="90" y="225.567796" style="stroke: #000000; stroke-width: 0.8"/>
      </g>
     </g>
     <g id="text_12">
      <!-- 2 -->
      <g transform="translate(76.6375 229.367015)scale(0.1 -0.1)">
       <use xlink:href="#DejaVuSans-32"/>
      </g>
     </g>
    </g>
    <g id="ytick_4">
     <g id="line2d_12">
      <g>
       <use xlink:href="#m9aae70bafc" x="90" y="182.744925" style="stroke: #000000; stroke-width: 0.8"/>
      </g>
     </g>
     <g id="text_13">
      <!-- 3 -->
      <g transform="translate(76.6375 186.544144)scale(0.1 -0.1)">
       <use xlink:href="#DejaVuSans-33"/>
      </g>
     </g>
    </g>
    <g id="ytick_5">
     <g id="line2d_13">
      <g>
       <use xlink:href="#m9aae70bafc" x="90" y="139.922055" style="stroke: #000000; stroke-width: 0.8"/>
      </g>
     </g>
     <g id="text_14">
      <!-- 4 -->
      <g transform="translate(76.6375 143.721273)scale(0.1 -0.1)">
       <use xlink:href="#DejaVuSans-34"/>
      </g>
     </g>
    </g>
    <g id="ytick_6">
     <g id="line2d_14">
      <g>
       <use xlink:href="#m9aae70bafc" x="90" y="97.099184" style="stroke: #000000; stroke-width: 0.8"/>
      </g>
     </g>
     <g id="text_15">
      <!-- 5 -->
      <g transform="translate(76.6375 100.898403)scale(0.1 -0.1)">
       <use xlink:href="#DejaVuSans-35"/>
      </g>
     </g>
    </g>
    <g id="ytick_7">
     <g id="line2d_15">
      <g>
       <use xlink:href="#m9aae70bafc" x="90" y="54.276313" style="stroke: #000000; stroke-width: 0.8"/>
      </g>
     </g>
     <g id="text_16">
      <!-- 6 -->
      <g transform="translate(76.6375 58.075532)scale(0.1 -0.1)">
       <use xlink:href="#DejaVuSans-36"/>
      </g>
     </g>
    </g>
    <g id="text_17">
     <!-- Loss -->
     <g transform="translate(70.557812 190.067187)rotate(-90)scale(0.1 -0.1)">
      <defs>
       <path id="DejaVuSans-4c" d="M 628 4666 
L 1259 4666 
L 1259 531 
L 3531 531 
L 3531 0 
L 628 0 
L 628 4666 
z
" transform="scale(0.015625)"/>
      </defs>
      <use xlink:href="#DejaVuSans-4c"/>
      <use xlink:href="#DejaVuSans-6f" x="53.962891"/>
      <use xlink:href="#DejaVuSans-73" x="115.144531"/>
      <use xlink:href="#DejaVuSans-73" x="167.244141"/>
     </g>
    </g>
   </g>
   <g id="line2d_16">
    <path d="M 115.363636 105.901056 
L 119.190213 105.901056 
L 119.30617 55.554545 
L 123.055443 55.554545 
L 123.1714 131.611471 
L 126.920673 131.611471 
L 127.036629 110.310645 
L 130.785902 110.310645 
L 130.901858 128.568385 
L 134.651132 128.568385 
L 134.767088 156.673648 
L 138.516362 156.673648 
L 138.632318 168.511156 
L 142.38159 168.511156 
L 142.497546 198.382299 
L 146.24682 198.382299 
L 146.362776 211.892994 
L 150.11205 211.892994 
L 150.228006 221.286281 
L 153.97728 221.286281 
L 154.093234 233.223329 
L 157.84251 233.223329 
L 157.958464 240.864678 
L 161.707736 240.864678 
L 161.823694 246.402266 
L 165.572966 246.402266 
L 165.688924 253.493217 
L 169.438196 253.493217 
L 169.554155 255.919308 
L 173.303426 255.919308 
L 173.41938 257.367223 
L 177.168656 257.367223 
L 177.28461 260.000136 
L 181.033886 260.000136 
L 181.14984 261.722344 
L 184.899116 261.722344 
L 185.01507 262.04285 
L 188.764342 262.04285 
L 188.880301 263.786783 
L 192.629576 263.786783 
L 192.745526 262.990254 
L 196.494802 262.990254 
L 196.610761 264.8898 
L 200.360028 264.8898 
L 200.475986 266.38647 
L 204.225262 266.38647 
L 204.341221 265.560064 
L 208.090488 265.560064 
L 208.206447 265.86315 
L 211.955722 265.86315 
L 212.071681 266.858182 
L 215.820948 266.858182 
L 215.936907 265.774387 
L 219.686182 265.774387 
L 219.802132 266.264206 
L 223.551408 266.264206 
L 223.667367 265.862028 
L 227.416634 265.862028 
L 227.532593 267.689081 
L 231.281868 267.689081 
L 231.397827 266.792149 
L 235.147094 266.792149 
L 235.263053 268.088186 
L 239.012328 268.088186 
L 239.128287 267.708022 
L 242.877554 267.708022 
L 242.993513 265.980068 
L 246.742788 265.980068 
L 246.858739 267.363415 
L 250.608014 267.363415 
L 250.723973 266.348752 
L 254.47324 266.348752 
L 254.589199 268.044586 
L 258.338474 268.044586 
L 258.454433 267.037862 
L 262.2037 267.037862 
L 262.319659 267.740732 
L 266.068926 267.740732 
L 266.184885 267.190409 
L 269.934169 267.190409 
L 270.05011 267.325681 
L 273.799395 267.325681 
L 273.915353 267.76927 
L 277.66462 267.76927 
L 277.780579 266.977664 
L 281.529846 266.977664 
L 281.645805 267.844655 
L 289.260315 267.759633 
L 289.376274 268.06981 
L 293.125541 268.06981 
L 293.241499 266.502296 
L 296.990766 266.502296 
L 297.106725 266.658008 
L 300.855992 266.658008 
L 300.971951 266.294627 
L 304.721218 266.294627 
L 304.837177 266.654659 
L 308.586461 266.654659 
L 308.70242 265.789349 
L 316.316912 265.85785 
L 316.432871 266.537293 
L 320.182138 266.537293 
L 320.298097 264.892212 
L 324.047381 264.892212 
L 324.163323 266.77189 
L 327.912607 266.77189 
L 328.028566 266.373085 
L 331.777833 266.373085 
L 331.893791 265.241841 
L 335.643058 265.241841 
L 335.759017 265.950755 
L 339.508284 265.950755 
L 339.624243 266.65405 
L 343.373527 266.65405 
L 343.489486 265.028388 
L 347.238753 265.028388 
L 347.354712 265.633777 
L 351.103979 265.633777 
L 351.219937 264.849063 
L 362.699673 264.774885 
L 362.815632 266.002825 
L 366.564899 266.002825 
L 366.680858 265.328352 
L 370.430125 265.328352 
L 370.546083 266.145967 
L 374.29535 266.145967 
L 374.411309 264.115816 
L 378.160593 264.115816 
L 378.276535 265.070856 
L 385.891045 265.002634 
L 386.007004 265.894461 
L 393.621496 265.850591 
L 393.776108 265.763998 
L 397.486739 265.763998 
L 397.602681 264.294734 
L 401.351965 264.294734 
L 401.467924 266.301788 
L 409.082434 266.208675 
L 409.198375 263.93818 
L 412.94766 263.93818 
L 413.063601 265.30442 
L 416.812885 265.30442 
L 416.967497 265.185941 
L 420.678111 265.185941 
L 420.794053 264.62839 
L 424.543337 264.62839 
L 424.659278 264.247956 
L 428.408563 264.247956 
L 428.524539 265.631814 
L 440.00424 265.641643 
L 440.120216 264.957838 
L 443.8695 264.957838 
L 443.985442 263.657585 
L 447.734726 263.657585 
L 447.850667 264.798187 
L 451.599952 264.798187 
L 451.715893 265.707287 
L 455.465177 265.707287 
L 455.581119 264.429517 
L 459.330403 264.429517 
L 459.446345 264.855777 
L 470.92608 264.787264 
L 471.042056 264.277791 
L 474.791306 264.277791 
L 474.907282 265.554572 
L 478.656566 265.554572 
L 478.772508 265.295443 
L 482.521792 265.295443 
L 482.637734 265.450249 
L 486.387018 265.450249 
L 486.502959 265.060685 
L 490.252244 265.060685 
L 490.368185 265.658658 
L 494.117469 265.658658 
L 494.233411 263.262848 
L 497.982695 263.262848 
L 498.098671 265.489845 
L 501.847921 265.489845 
L 501.963897 264.66218 
L 505.713147 264.66218 
L 505.829123 266.017414 
L 509.578372 266.017414 
L 509.694348 264.661744 
L 517.308858 264.654513 
L 517.4248 265.107502 
L 521.174084 265.107502 
L 521.290026 263.897474 
L 525.03931 263.897474 
L 525.155251 265.480105 
L 528.904536 265.480105 
L 529.020477 264.071776 
L 532.769761 264.071776 
L 532.885703 264.231032 
L 536.634987 264.231032 
L 536.750963 264.497569 
L 544.365439 264.430355 
L 544.481415 265.03058 
L 548.230664 265.03058 
L 548.34664 265.435192 
L 552.095925 265.435192 
L 552.211866 263.7849 
L 555.96115 263.7849 
L 556.077092 264.520821 
L 559.826376 264.520821 
L 559.942318 264.961951 
L 563.691602 264.961951 
L 563.807543 263.774492 
L 571.422053 263.875732 
L 571.53803 264.513507 
L 575.287279 264.513507 
L 575.403255 263.356905 
L 579.152505 263.356905 
L 579.268481 264.566613 
L 583.017731 264.566613 
L 583.133707 264.839206 
L 586.882991 264.839206 
L 586.998932 263.845666 
L 590.748217 263.845666 
L 590.864158 264.688662 
L 594.613442 264.688662 
L 594.729384 264.223287 
L 598.478668 264.223287 
L 598.63328 264.341044 
L 602.343894 264.341044 
L 602.459835 264.933859 
L 606.20912 264.933859 
L 606.325096 263.685713 
L 610.074345 263.685713 
L 610.190322 264.287278 
L 613.939571 264.287278 
L 614.055547 263.729084 
L 617.804797 263.729084 
L 617.920773 263.924526 
L 621.670023 263.924526 
L 621.785999 263.383877 
L 622.636364 263.383877 
L 622.636364 263.383877 
" clip-path="url(#pf1fd9e807b)" style="fill: none; stroke: #1f77b4; stroke-width: 1.5; stroke-linecap: square"/>
   </g>
   <g id="line2d_17">
    <path d="M 115.363636 302.162677 
L 119.190213 302.162677 
L 119.30617 302.293328 
L 123.055443 302.293328 
L 123.1714 300.202409 
L 126.920673 300.202409 
L 127.036629 302.645455 
L 130.785902 302.645455 
L 130.901858 301.446089 
L 134.651132 301.446089 
L 134.767088 297.643854 
L 138.516362 297.643854 
L 138.632318 295.188923 
L 142.38159 295.188923 
L 142.497546 286.272634 
L 146.24682 286.272634 
L 146.401429 286.154205 
L 150.11205 286.154205 
L 150.228006 280.131463 
L 153.97728 280.131463 
L 154.093234 277.893189 
L 157.84251 277.893189 
L 157.958464 273.518785 
L 161.707736 273.518785 
L 161.823694 271.919101 
L 165.572966 271.919101 
L 165.688924 268.86936 
L 169.438196 268.86936 
L 169.554155 267.022477 
L 173.303426 267.022477 
L 173.41938 266.067348 
L 177.168656 266.067348 
L 177.28461 265.609119 
L 181.033886 265.609119 
L 181.14984 264.399697 
L 184.899116 264.399697 
L 185.01507 263.934522 
L 188.764342 263.934522 
L 188.880301 262.889927 
L 192.629576 262.889927 
L 192.745526 263.130525 
L 196.494802 263.130525 
L 196.610761 262.57849 
L 200.360028 262.57849 
L 200.514639 262.694621 
L 208.090488 262.700582 
L 208.206447 261.924223 
L 211.955722 261.924223 
L 212.071681 261.781428 
L 215.820948 261.781428 
L 215.936907 262.966588 
L 219.686182 262.966588 
L 219.802132 261.744051 
L 223.551408 261.744051 
L 223.667367 262.15107 
L 227.416634 262.15107 
L 227.532593 260.922503 
L 231.281868 260.922503 
L 231.397827 261.433684 
L 235.147094 261.433684 
L 235.263053 260.997954 
L 239.012328 260.997954 
L 239.128287 261.167694 
L 242.877554 261.167694 
L 242.993513 262.05824 
L 246.742788 262.05824 
L 246.858739 260.86557 
L 250.608014 260.86557 
L 250.762626 260.979693 
L 254.47324 260.979693 
L 254.589199 260.36589 
L 258.338474 260.36589 
L 258.454433 261.169499 
L 262.2037 261.169499 
L 262.319659 260.702806 
L 266.068926 260.702806 
L 266.184885 261.262354 
L 269.934169 261.262354 
L 270.05011 261.792617 
L 273.799395 261.792617 
L 273.915353 260.453223 
L 277.66462 260.453223 
L 277.780579 261.756976 
L 281.529846 261.756976 
L 281.645805 260.015658 
L 285.395072 260.015658 
L 285.511031 260.592764 
L 289.260315 260.592764 
L 289.376274 261.309582 
L 293.125541 261.309582 
L 293.241499 261.00694 
L 296.990766 261.00694 
L 297.106725 261.650057 
L 300.855992 261.650057 
L 300.971951 261.173673 
L 304.721218 261.173673 
L 304.837177 261.828932 
L 312.451687 261.838248 
L 312.567645 261.457167 
L 316.316912 261.457167 
L 316.432871 261.660024 
L 320.182138 261.660024 
L 320.298097 261.169244 
L 324.047381 261.169244 
L 324.163323 260.842354 
L 327.912607 260.842354 
L 328.028566 261.398624 
L 331.777833 261.398624 
L 331.893791 261.550286 
L 335.643058 261.550286 
L 335.759017 261.283083 
L 339.508284 261.283083 
L 339.624243 261.04593 
L 343.373527 261.04593 
L 343.489486 261.37341 
L 347.238753 261.37341 
L 347.354712 261.533403 
L 351.103979 261.533403 
L 351.25859 261.659524 
L 354.969204 261.659524 
L 355.085163 260.882883 
L 358.83443 260.882883 
L 358.950389 261.352125 
L 362.699673 261.352125 
L 362.815632 261.098736 
L 366.564899 261.098736 
L 366.680858 261.333518 
L 370.430125 261.333518 
L 370.546083 261.10473 
L 374.29535 261.10473 
L 374.411309 262.085593 
L 378.160593 262.085593 
L 378.276535 261.586865 
L 382.025819 261.586865 
L 382.141778 261.168653 
L 385.891045 261.168653 
L 386.007004 261.523351 
L 389.756271 261.523351 
L 389.872229 261.179743 
L 393.621496 261.179743 
L 393.737455 261.942992 
L 401.351965 262.02045 
L 401.467924 260.99807 
L 405.217191 260.99807 
L 405.33315 261.515927 
L 409.082434 261.515927 
L 409.198375 260.833637 
L 412.94766 260.833637 
L 413.063601 261.432582 
L 416.812885 261.432582 
L 416.928827 261.175413 
L 420.678111 261.175413 
L 420.794053 261.948702 
L 428.408563 261.957975 
L 428.524539 261.316364 
L 432.273788 261.316364 
L 432.389764 260.986404 
L 436.139014 260.986404 
L 436.25499 261.71662 
L 440.00424 261.71662 
L 440.158852 261.833837 
L 443.8695 261.833837 
L 443.985442 260.742585 
L 447.734726 260.742585 
L 447.850667 261.680073 
L 451.599952 261.680073 
L 451.715893 261.43389 
L 455.465177 261.43389 
L 455.581119 262.241563 
L 459.330403 262.241563 
L 459.446345 261.450448 
L 463.195629 261.450448 
L 463.311605 261.107829 
L 470.92608 261.190522 
L 471.042056 262.114528 
L 474.791306 262.114528 
L 474.907282 261.07878 
L 478.656566 261.07878 
L 478.772508 261.547777 
L 482.521792 261.547777 
L 482.637734 262.016347 
L 486.387018 262.016347 
L 486.502959 261.439571 
L 490.252244 261.439571 
L 490.368185 261.178549 
L 494.117469 261.178549 
L 494.233411 262.057745 
L 497.982695 262.057745 
L 498.098671 260.68723 
L 501.847921 260.68723 
L 501.963897 261.716272 
L 505.713147 261.716272 
L 505.829123 261.477855 
L 509.578372 261.477855 
L 509.694348 261.915335 
L 513.443633 261.915335 
L 513.559574 261.755168 
L 517.308858 261.755168 
L 517.4248 261.434116 
L 521.174084 261.434116 
L 521.290026 260.874452 
L 528.904536 260.848364 
L 529.020477 261.528402 
L 532.769761 261.528402 
L 532.885703 261.89845 
L 536.634987 261.89845 
L 536.750963 261.430022 
L 540.500213 261.430022 
L 540.616189 262.184643 
L 544.365439 262.184643 
L 544.481415 261.214713 
L 548.230664 261.214713 
L 548.34664 261.609259 
L 552.095925 261.609259 
L 552.211866 261.909208 
L 555.96115 261.909208 
L 556.077092 260.719284 
L 559.826376 260.719284 
L 559.942318 261.545797 
L 563.691602 261.545797 
L 563.807543 261.759098 
L 567.556828 261.759098 
L 567.672769 262.059499 
L 571.422053 262.059499 
L 571.53803 261.481307 
L 575.287279 261.481307 
L 575.403255 262.078698 
L 579.152505 262.078698 
L 579.268481 260.985974 
L 583.017731 260.985974 
L 583.133707 261.904554 
L 586.882991 261.904554 
L 586.998932 262.402636 
L 590.748217 262.402636 
L 590.864158 262.008148 
L 594.613442 262.008148 
L 594.729384 261.265001 
L 598.478668 261.265001 
L 598.59461 262.005123 
L 602.343894 262.005123 
L 602.459835 261.525668 
L 606.20912 261.525668 
L 606.325096 261.901095 
L 610.074345 261.901095 
L 610.190322 262.153518 
L 617.804797 262.238312 
L 617.920773 262.033349 
L 621.670023 262.033349 
L 621.785999 262.206754 
L 622.636364 262.206754 
L 622.636364 262.206754 
" clip-path="url(#pf1fd9e807b)" style="fill: none; stroke: #ff7f0e; stroke-width: 1.5; stroke-linecap: square"/>
   </g>
   <g id="patch_3">
    <path d="M 90 315 
L 90 43.2 
" style="fill: none; stroke: #000000; stroke-width: 0.8; stroke-linejoin: miter; stroke-linecap: square"/>
   </g>
   <g id="patch_4">
    <path d="M 648 315 
L 648 43.2 
" style="fill: none; stroke: #000000; stroke-width: 0.8; stroke-linejoin: miter; stroke-linecap: square"/>
   </g>
   <g id="patch_5">
    <path d="M 90 315 
L 648 315 
" style="fill: none; stroke: #000000; stroke-width: 0.8; stroke-linejoin: miter; stroke-linecap: square"/>
   </g>
   <g id="patch_6">
    <path d="M 90 43.2 
L 648 43.2 
" style="fill: none; stroke: #000000; stroke-width: 0.8; stroke-linejoin: miter; stroke-linecap: square"/>
   </g>
   <g id="text_18">
    <!-- Generator and Discriminator Loss During Training -->
    <g transform="translate(121.30625 37.2)scale(0.2 -0.2)">
     <defs>
      <path id="DejaVuSans-47" d="M 3809 666 
L 3809 1919 
L 2778 1919 
L 2778 2438 
L 4434 2438 
L 4434 434 
Q 4069 175 3628 42 
Q 3188 -91 2688 -91 
Q 1594 -91 976 548 
Q 359 1188 359 2328 
Q 359 3472 976 4111 
Q 1594 4750 2688 4750 
Q 3144 4750 3555 4637 
Q 3966 4525 4313 4306 
L 4313 3634 
Q 3963 3931 3569 4081 
Q 3175 4231 2741 4231 
Q 1884 4231 1454 3753 
Q 1025 3275 1025 2328 
Q 1025 1384 1454 906 
Q 1884 428 2741 428 
Q 3075 428 3337 486 
Q 3600 544 3809 666 
z
" transform="scale(0.015625)"/>
      <path id="DejaVuSans-65" d="M 3597 1894 
L 3597 1613 
L 953 1613 
Q 991 1019 1311 708 
Q 1631 397 2203 397 
Q 2534 397 2845 478 
Q 3156 559 3463 722 
L 3463 178 
Q 3153 47 2828 -22 
Q 2503 -91 2169 -91 
Q 1331 -91 842 396 
Q 353 884 353 1716 
Q 353 2575 817 3079 
Q 1281 3584 2069 3584 
Q 2775 3584 3186 3129 
Q 3597 2675 3597 1894 
z
M 3022 2063 
Q 3016 2534 2758 2815 
Q 2500 3097 2075 3097 
Q 1594 3097 1305 2825 
Q 1016 2553 972 2059 
L 3022 2063 
z
" transform="scale(0.015625)"/>
      <path id="DejaVuSans-6e" d="M 3513 2113 
L 3513 0 
L 2938 0 
L 2938 2094 
Q 2938 2591 2744 2837 
Q 2550 3084 2163 3084 
Q 1697 3084 1428 2787 
Q 1159 2491 1159 1978 
L 1159 0 
L 581 0 
L 581 3500 
L 1159 3500 
L 1159 2956 
Q 1366 3272 1645 3428 
Q 1925 3584 2291 3584 
Q 2894 3584 3203 3211 
Q 3513 2838 3513 2113 
z
" transform="scale(0.015625)"/>
      <path id="DejaVuSans-72" d="M 2631 2963 
Q 2534 3019 2420 3045 
Q 2306 3072 2169 3072 
Q 1681 3072 1420 2755 
Q 1159 2438 1159 1844 
L 1159 0 
L 581 0 
L 581 3500 
L 1159 3500 
L 1159 2956 
Q 1341 3275 1631 3429 
Q 1922 3584 2338 3584 
Q 2397 3584 2469 3576 
Q 2541 3569 2628 3553 
L 2631 2963 
z
" transform="scale(0.015625)"/>
      <path id="DejaVuSans-61" d="M 2194 1759 
Q 1497 1759 1228 1600 
Q 959 1441 959 1056 
Q 959 750 1161 570 
Q 1363 391 1709 391 
Q 2188 391 2477 730 
Q 2766 1069 2766 1631 
L 2766 1759 
L 2194 1759 
z
M 3341 1997 
L 3341 0 
L 2766 0 
L 2766 531 
Q 2569 213 2275 61 
Q 1981 -91 1556 -91 
Q 1019 -91 701 211 
Q 384 513 384 1019 
Q 384 1609 779 1909 
Q 1175 2209 1959 2209 
L 2766 2209 
L 2766 2266 
Q 2766 2663 2505 2880 
Q 2244 3097 1772 3097 
Q 1472 3097 1187 3025 
Q 903 2953 641 2809 
L 641 3341 
Q 956 3463 1253 3523 
Q 1550 3584 1831 3584 
Q 2591 3584 2966 3190 
Q 3341 2797 3341 1997 
z
" transform="scale(0.015625)"/>
      <path id="DejaVuSans-74" d="M 1172 4494 
L 1172 3500 
L 2356 3500 
L 2356 3053 
L 1172 3053 
L 1172 1153 
Q 1172 725 1289 603 
Q 1406 481 1766 481 
L 2356 481 
L 2356 0 
L 1766 0 
Q 1100 0 847 248 
Q 594 497 594 1153 
L 594 3053 
L 172 3053 
L 172 3500 
L 594 3500 
L 594 4494 
L 1172 4494 
z
" transform="scale(0.015625)"/>
      <path id="DejaVuSans-20" transform="scale(0.015625)"/>
      <path id="DejaVuSans-64" d="M 2906 2969 
L 2906 4863 
L 3481 4863 
L 3481 0 
L 2906 0 
L 2906 525 
Q 2725 213 2448 61 
Q 2172 -91 1784 -91 
Q 1150 -91 751 415 
Q 353 922 353 1747 
Q 353 2572 751 3078 
Q 1150 3584 1784 3584 
Q 2172 3584 2448 3432 
Q 2725 3281 2906 2969 
z
M 947 1747 
Q 947 1113 1208 752 
Q 1469 391 1925 391 
Q 2381 391 2643 752 
Q 2906 1113 2906 1747 
Q 2906 2381 2643 2742 
Q 2381 3103 1925 3103 
Q 1469 3103 1208 2742 
Q 947 2381 947 1747 
z
" transform="scale(0.015625)"/>
      <path id="DejaVuSans-44" d="M 1259 4147 
L 1259 519 
L 2022 519 
Q 2988 519 3436 956 
Q 3884 1394 3884 2338 
Q 3884 3275 3436 3711 
Q 2988 4147 2022 4147 
L 1259 4147 
z
M 628 4666 
L 1925 4666 
Q 3281 4666 3915 4102 
Q 4550 3538 4550 2338 
Q 4550 1131 3912 565 
Q 3275 0 1925 0 
L 628 0 
L 628 4666 
z
" transform="scale(0.015625)"/>
      <path id="DejaVuSans-69" d="M 603 3500 
L 1178 3500 
L 1178 0 
L 603 0 
L 603 3500 
z
M 603 4863 
L 1178 4863 
L 1178 4134 
L 603 4134 
L 603 4863 
z
" transform="scale(0.015625)"/>
      <path id="DejaVuSans-6d" d="M 3328 2828 
Q 3544 3216 3844 3400 
Q 4144 3584 4550 3584 
Q 5097 3584 5394 3201 
Q 5691 2819 5691 2113 
L 5691 0 
L 5113 0 
L 5113 2094 
Q 5113 2597 4934 2840 
Q 4756 3084 4391 3084 
Q 3944 3084 3684 2787 
Q 3425 2491 3425 1978 
L 3425 0 
L 2847 0 
L 2847 2094 
Q 2847 2600 2669 2842 
Q 2491 3084 2119 3084 
Q 1678 3084 1418 2786 
Q 1159 2488 1159 1978 
L 1159 0 
L 581 0 
L 581 3500 
L 1159 3500 
L 1159 2956 
Q 1356 3278 1631 3431 
Q 1906 3584 2284 3584 
Q 2666 3584 2933 3390 
Q 3200 3197 3328 2828 
z
" transform="scale(0.015625)"/>
      <path id="DejaVuSans-75" d="M 544 1381 
L 544 3500 
L 1119 3500 
L 1119 1403 
Q 1119 906 1312 657 
Q 1506 409 1894 409 
Q 2359 409 2629 706 
Q 2900 1003 2900 1516 
L 2900 3500 
L 3475 3500 
L 3475 0 
L 2900 0 
L 2900 538 
Q 2691 219 2414 64 
Q 2138 -91 1772 -91 
Q 1169 -91 856 284 
Q 544 659 544 1381 
z
M 1991 3584 
L 1991 3584 
z
" transform="scale(0.015625)"/>
      <path id="DejaVuSans-67" d="M 2906 1791 
Q 2906 2416 2648 2759 
Q 2391 3103 1925 3103 
Q 1463 3103 1205 2759 
Q 947 2416 947 1791 
Q 947 1169 1205 825 
Q 1463 481 1925 481 
Q 2391 481 2648 825 
Q 2906 1169 2906 1791 
z
M 3481 434 
Q 3481 -459 3084 -895 
Q 2688 -1331 1869 -1331 
Q 1566 -1331 1297 -1286 
Q 1028 -1241 775 -1147 
L 775 -588 
Q 1028 -725 1275 -790 
Q 1522 -856 1778 -856 
Q 2344 -856 2625 -561 
Q 2906 -266 2906 331 
L 2906 616 
Q 2728 306 2450 153 
Q 2172 0 1784 0 
Q 1141 0 747 490 
Q 353 981 353 1791 
Q 353 2603 747 3093 
Q 1141 3584 1784 3584 
Q 2172 3584 2450 3431 
Q 2728 3278 2906 2969 
L 2906 3500 
L 3481 3500 
L 3481 434 
z
" transform="scale(0.015625)"/>
      <path id="DejaVuSans-54" d="M -19 4666 
L 3928 4666 
L 3928 4134 
L 2272 4134 
L 2272 0 
L 1638 0 
L 1638 4134 
L -19 4134 
L -19 4666 
z
" transform="scale(0.015625)"/>
     </defs>
     <use xlink:href="#DejaVuSans-47"/>
     <use xlink:href="#DejaVuSans-65" x="77.490234"/>
     <use xlink:href="#DejaVuSans-6e" x="139.013672"/>
     <use xlink:href="#DejaVuSans-65" x="202.392578"/>
     <use xlink:href="#DejaVuSans-72" x="263.916016"/>
     <use xlink:href="#DejaVuSans-61" x="305.029297"/>
     <use xlink:href="#DejaVuSans-74" x="366.308594"/>
     <use xlink:href="#DejaVuSans-6f" x="405.517578"/>
     <use xlink:href="#DejaVuSans-72" x="466.699219"/>
     <use xlink:href="#DejaVuSans-20" x="507.8125"/>
     <use xlink:href="#DejaVuSans-61" x="539.599609"/>
     <use xlink:href="#DejaVuSans-6e" x="600.878906"/>
     <use xlink:href="#DejaVuSans-64" x="664.257812"/>
     <use xlink:href="#DejaVuSans-20" x="727.734375"/>
     <use xlink:href="#DejaVuSans-44" x="759.521484"/>
     <use xlink:href="#DejaVuSans-69" x="836.523438"/>
     <use xlink:href="#DejaVuSans-73" x="864.306641"/>
     <use xlink:href="#DejaVuSans-63" x="916.40625"/>
     <use xlink:href="#DejaVuSans-72" x="971.386719"/>
     <use xlink:href="#DejaVuSans-69" x="1012.5"/>
     <use xlink:href="#DejaVuSans-6d" x="1040.283203"/>
     <use xlink:href="#DejaVuSans-69" x="1137.695312"/>
     <use xlink:href="#DejaVuSans-6e" x="1165.478516"/>
     <use xlink:href="#DejaVuSans-61" x="1228.857422"/>
     <use xlink:href="#DejaVuSans-74" x="1290.136719"/>
     <use xlink:href="#DejaVuSans-6f" x="1329.345703"/>
     <use xlink:href="#DejaVuSans-72" x="1390.527344"/>
     <use xlink:href="#DejaVuSans-20" x="1431.640625"/>
     <use xlink:href="#DejaVuSans-4c" x="1463.427734"/>
     <use xlink:href="#DejaVuSans-6f" x="1517.390625"/>
     <use xlink:href="#DejaVuSans-73" x="1578.572266"/>
     <use xlink:href="#DejaVuSans-73" x="1630.671875"/>
     <use xlink:href="#DejaVuSans-20" x="1682.771484"/>
     <use xlink:href="#DejaVuSans-44" x="1714.558594"/>
     <use xlink:href="#DejaVuSans-75" x="1791.560547"/>
     <use xlink:href="#DejaVuSans-72" x="1854.939453"/>
     <use xlink:href="#DejaVuSans-69" x="1896.052734"/>
     <use xlink:href="#DejaVuSans-6e" x="1923.835938"/>
     <use xlink:href="#DejaVuSans-67" x="1987.214844"/>
     <use xlink:href="#DejaVuSans-20" x="2050.691406"/>
     <use xlink:href="#DejaVuSans-54" x="2082.478516"/>
     <use xlink:href="#DejaVuSans-72" x="2128.8125"/>
     <use xlink:href="#DejaVuSans-61" x="2169.925781"/>
     <use xlink:href="#DejaVuSans-69" x="2231.205078"/>
     <use xlink:href="#DejaVuSans-6e" x="2258.988281"/>
     <use xlink:href="#DejaVuSans-69" x="2322.367188"/>
     <use xlink:href="#DejaVuSans-6e" x="2350.150391"/>
     <use xlink:href="#DejaVuSans-67" x="2413.529297"/>
    </g>
   </g>
   <g id="legend_1">
    <g id="patch_7">
     <path d="M 541.790625 80.55625 
L 641 80.55625 
Q 643 80.55625 643 78.55625 
L 643 50.2 
Q 643 48.2 641 48.2 
L 541.790625 48.2 
Q 539.790625 48.2 539.790625 50.2 
L 539.790625 78.55625 
Q 539.790625 80.55625 541.790625 80.55625 
z
" style="fill: #ffffff; opacity: 0.8; stroke: #cccccc; stroke-linejoin: miter"/>
    </g>
    <g id="line2d_18">
     <path d="M 543.790625 56.298437 
L 553.790625 56.298437 
L 563.790625 56.298437 
" style="fill: none; stroke: #1f77b4; stroke-width: 1.5; stroke-linecap: square"/>
    </g>
    <g id="text_19">
     <!-- Generator -->
     <g transform="translate(571.790625 59.798437)scale(0.1 -0.1)">
      <use xlink:href="#DejaVuSans-47"/>
      <use xlink:href="#DejaVuSans-65" x="77.490234"/>
      <use xlink:href="#DejaVuSans-6e" x="139.013672"/>
      <use xlink:href="#DejaVuSans-65" x="202.392578"/>
      <use xlink:href="#DejaVuSans-72" x="263.916016"/>
      <use xlink:href="#DejaVuSans-61" x="305.029297"/>
      <use xlink:href="#DejaVuSans-74" x="366.308594"/>
      <use xlink:href="#DejaVuSans-6f" x="405.517578"/>
      <use xlink:href="#DejaVuSans-72" x="466.699219"/>
     </g>
    </g>
    <g id="line2d_19">
     <path d="M 543.790625 70.976562 
L 553.790625 70.976562 
L 563.790625 70.976562 
" style="fill: none; stroke: #ff7f0e; stroke-width: 1.5; stroke-linecap: square"/>
    </g>
    <g id="text_20">
     <!-- Discriminator -->
     <g transform="translate(571.790625 74.476562)scale(0.1 -0.1)">
      <use xlink:href="#DejaVuSans-44"/>
      <use xlink:href="#DejaVuSans-69" x="77.001953"/>
      <use xlink:href="#DejaVuSans-73" x="104.785156"/>
      <use xlink:href="#DejaVuSans-63" x="156.884766"/>
      <use xlink:href="#DejaVuSans-72" x="211.865234"/>
      <use xlink:href="#DejaVuSans-69" x="252.978516"/>
      <use xlink:href="#DejaVuSans-6d" x="280.761719"/>
      <use xlink:href="#DejaVuSans-69" x="378.173828"/>
      <use xlink:href="#DejaVuSans-6e" x="405.957031"/>
      <use xlink:href="#DejaVuSans-61" x="469.335938"/>
      <use xlink:href="#DejaVuSans-74" x="530.615234"/>
      <use xlink:href="#DejaVuSans-6f" x="569.824219"/>
      <use xlink:href="#DejaVuSans-72" x="631.005859"/>
     </g>
    </g>
   </g>
  </g>
 </g>
 <defs>
  <clipPath id="pf1fd9e807b">
   <rect x="90" y="43.2" width="558" height="271.8"/>
  </clipPath>
 </defs>
</svg>
